<svg width="424" height="922" fill="none" xmlns="http://www.w3.org/2000/svg"><path d="M406 0H18C8.059 0 0 8.059 0 18v886c0 9.941 8.059 18 18 18h388c9.941 0 18-8.059 18-18V18c0-9.941-8.059-18-18-18z" fill="#fff"/><path d="M31.24 128v-25.7h20.34V128h-5.44v-21.17h-9.46V128h-5.44zm44.25-9.86c0 3.26-.87 5.78-2.59 7.56-1.71 1.77-4.04 2.66-6.99 2.66-1.82 0-3.45-.4-4.89-1.19-1.42-.79-2.54-1.94-3.35-3.45-.82-1.54-1.23-3.4-1.23-5.58 0-3.27.86-5.78 2.56-7.53 1.7-1.75 4.04-2.63 7.02-2.63 1.85 0 3.48.4 4.9 1.19 1.41.79 2.53 1.95 3.34 3.46.82 1.49 1.23 3.32 1.23 5.51zm-13.57 0c0 1.94.31 3.42.93 4.42.65.99 1.69 1.48 3.13 1.48 1.42 0 2.44-.49 3.06-1.48.65-1 .98-2.48.98-4.42 0-1.95-.33-3.4-.98-4.36-.62-.98-1.65-1.48-3.09-1.48-1.42 0-2.45.5-3.1 1.48-.62.96-.93 2.41-.93 4.36zm35.86-9.8V128h-5.37v-15.62h-7.12V128h-5.37v-19.66h17.86zm23.48 9.8c0 3.26-.86 5.78-2.59 7.56-1.7 1.77-4.03 2.66-6.98 2.66-1.83 0-3.46-.4-4.9-1.19-1.42-.79-2.53-1.94-3.35-3.45-.81-1.54-1.22-3.4-1.22-5.58 0-3.27.85-5.78 2.55-7.53 1.71-1.75 4.05-2.63 7.02-2.63 1.85 0 3.48.4 4.9 1.19 1.42.79 2.53 1.95 3.35 3.46.81 1.49 1.22 3.32 1.22 5.51zm-13.57 0c0 1.94.31 3.42.94 4.42.64.99 1.69 1.48 3.13 1.48 1.41 0 2.43-.49 3.06-1.48.65-1 .97-2.48.97-4.42 0-1.95-.32-3.4-.97-4.36-.63-.98-1.66-1.48-3.1-1.48-1.41 0-2.45.5-3.09 1.48-.63.96-.94 2.41-.94 4.36zM143.3 128h-5.37v-15.62H133c-.31 3.84-.73 6.93-1.26 9.28-.5 2.33-1.21 4.04-2.12 5.12-.91 1.05-2.14 1.58-3.67 1.58-1.25 0-2.27-.19-3.06-.58v-4.28c.55.24 1.12.36 1.72.36.44 0 .83-.22 1.19-.65.36-.43.7-1.21 1.01-2.34.34-1.13.64-2.7.9-4.71.26-2.04.5-4.65.72-7.82h14.87V128zm10.96-19.66v7.56h7.49v-7.56h5.36V128h-5.36v-8.1h-7.49v8.1h-5.36v-19.66h5.36zm26.57-.36c2.72 0 4.86.78 6.45 2.34 1.58 1.54 2.37 3.74 2.37 6.59v2.59h-12.67c.05 1.52.49 2.7 1.33 3.57.87.86 2.06 1.29 3.57 1.29 1.27 0 2.42-.12 3.45-.36 1.04-.26 2.1-.66 3.21-1.18v4.14c-.96.48-1.98.82-3.06 1.04-1.06.24-2.34.36-3.85.36-1.97 0-3.71-.36-5.22-1.08-1.52-.74-2.7-1.86-3.57-3.35-.86-1.49-1.29-3.36-1.29-5.61 0-2.31.38-4.22 1.15-5.73.79-1.53 1.88-2.69 3.27-3.45 1.4-.77 3.02-1.16 4.86-1.16zm.04 3.82c-1.03 0-1.9.34-2.59 1.01-.67.67-1.07 1.71-1.19 3.13h7.52c-.02-1.2-.33-2.18-.93-2.95-.6-.79-1.54-1.19-2.81-1.19zm18.5-3.46v7.56h7.49v-7.56h5.36V128h-5.36v-8.1h-7.49v8.1H194v-19.66h5.37zm23.65 7.78c0 .41-.02.91-.07 1.51-.02.6-.06 1.21-.11 1.84-.02.62-.06 1.17-.1 1.65-.05.48-.09.82-.11 1.01l9.07-13.79h6.44V128h-5.18v-7.85c0-.65.02-1.35.07-2.12.05-.79.1-1.53.15-2.2.07-.69.12-1.22.14-1.58L224.28 128h-6.44v-19.66h5.18v7.78zm28.83-8.14c2.71 0 4.86.78 6.44 2.34 1.59 1.54 2.38 3.74 2.38 6.59v2.59H248c.05 1.52.49 2.7 1.33 3.57.86.86 2.05 1.29 3.56 1.29 1.28 0 2.43-.12 3.46-.36 1.03-.26 2.1-.66 3.2-1.18v4.14c-.96.48-1.98.82-3.06 1.04-1.05.24-2.34.36-3.85.36-1.97 0-3.71-.36-5.22-1.08-1.51-.74-2.7-1.86-3.56-3.35-.87-1.49-1.3-3.36-1.3-5.61 0-2.31.39-4.22 1.15-5.73.8-1.53 1.89-2.69 3.28-3.45 1.39-.77 3.01-1.16 4.86-1.16zm.04 3.82c-1.04 0-1.9.34-2.6 1.01-.67.67-1.06 1.71-1.18 3.13h7.52c-.02-1.2-.34-2.18-.94-2.95-.6-.79-1.53-1.19-2.8-1.19zm29.7 16.56c-2.93 0-5.2-.8-6.8-2.41-1.59-1.63-2.38-4.19-2.38-7.67 0-2.4.41-4.36 1.22-5.87.82-1.51 1.95-2.63 3.39-3.35 1.46-.72 3.14-1.08 5.04-1.08 1.34 0 2.51.14 3.49.4 1.01.26 1.88.58 2.63.94l-1.59 4.14c-.84-.34-1.63-.62-2.37-.83-.72-.22-1.44-.33-2.16-.33-2.79 0-4.18 1.98-4.18 5.94 0 1.97.36 3.42 1.08 4.36.75.94 1.78 1.4 3.1 1.4 1.13 0 2.12-.14 2.99-.43.86-.31 1.7-.73 2.52-1.26v4.57c-.82.53-1.68.9-2.6 1.12-.88.24-2.01.36-3.38.36zm15.22-12.82c0 1.71.79 2.56 2.37 2.56 1.03 0 1.99-.11 2.88-.32.89-.24 1.78-.56 2.67-.94v-8.5h5.36V128h-5.36v-7.81c-.84.45-1.8.87-2.88 1.26-1.08.36-2.31.54-3.68.54-2.04 0-3.67-.53-4.89-1.59-1.23-1.05-1.84-2.64-1.84-4.75v-7.31h5.37v7.2zm27-7.56c2.72 0 4.86.78 6.45 2.34 1.58 1.54 2.37 3.74 2.37 6.59v2.59h-12.67c.05 1.52.49 2.7 1.33 3.57.87.86 2.06 1.29 3.57 1.29 1.27 0 2.42-.12 3.45-.36 1.04-.26 2.1-.66 3.21-1.18v4.14c-.96.48-1.98.82-3.06 1.04-1.06.24-2.34.36-3.85.36-1.97 0-3.71-.36-5.22-1.08-1.52-.74-2.7-1.86-3.57-3.35-.86-1.49-1.29-3.36-1.29-5.61 0-2.31.38-4.22 1.15-5.73.79-1.53 1.88-2.69 3.27-3.45 1.4-.77 3.02-1.16 4.86-1.16zm.04 3.82c-1.03 0-1.9.34-2.59 1.01-.67.67-1.07 1.71-1.19 3.13h7.52c-.02-1.2-.33-2.18-.93-2.95-.6-.79-1.54-1.19-2.81-1.19zm29.41.58h-6.45V128h-5.36v-15.62H335v-4.04h18.26v4.04zm11.69-4.43c2.64 0 4.65.57 6.04 1.73 1.42 1.12 2.13 2.86 2.13 5.22V128h-3.75l-1.04-2.66h-.14c-.84 1.05-1.73 1.82-2.67 2.3-.93.48-2.22.72-3.85.72-1.75 0-3.2-.5-4.36-1.51-1.15-1.03-1.72-2.61-1.72-4.72 0-2.09.73-3.62 2.19-4.61 1.47-1 3.66-1.56 6.59-1.65l3.42-.11v-.86c0-1.04-.28-1.79-.83-2.27-.53-.48-1.27-.72-2.23-.72s-1.9.14-2.81.43c-.91.26-1.82.6-2.73 1.01l-1.77-3.64c1.06-.55 2.22-.98 3.49-1.29 1.3-.32 2.64-.47 4.04-.47zm.75 11.01c-1.73.05-2.93.36-3.6.94-.67.58-1.01 1.33-1.01 2.27 0 .81.24 1.4.72 1.76.48.34 1.11.51 1.88.51 1.15 0 2.12-.34 2.91-1.01.79-.7 1.19-1.67 1.19-2.92v-1.62l-2.09.07z" fill="#1B1B1B"/><path d="M392 214H270c-5.523 0-10 4.477-10 10v209c0 5.523 4.477 10 10 10h122c5.523 0 10-4.477 10-10V224c0-5.523-4.477-10-10-10z" fill="#E3EAF4"/><path d="M234 214H38c-5.523 0-10 4.477-10 10v209c0 5.523 4.477 10 10 10h196c5.523 0 10-4.477 10-10V224c0-5.523-4.477-10-10-10z" fill="#0175B6"/><path d="M49.42 370h-1.3l-3.88-4.34V370h-1.08v-8.57h1.08v4.15l3.78-4.15h1.23l-3.72 4.17 3.89 4.4zm6.61-3.23c0 1.07-.27 1.89-.82 2.47-.53.59-1.26.88-2.18.88-.57 0-1.08-.13-1.52-.38-.44-.27-.79-.65-1.05-1.14-.25-.51-.38-1.12-.38-1.83 0-1.06.27-1.88.8-2.46.54-.57 1.27-.86 2.19-.86.58 0 1.09.13 1.53.39.45.26.8.64 1.05 1.13.25.49.38 1.09.38 1.8zm-4.86 0c0 .76.15 1.37.44 1.81.31.44.79.66 1.44.66.65 0 1.13-.22 1.43-.66.31-.44.46-1.05.46-1.81s-.15-1.35-.46-1.79c-.3-.43-.78-.64-1.44-.64-.65 0-1.13.21-1.43.64-.29.44-.44 1.03-.44 1.79zm13.43-3.2V370h-.94v-4.1c0-.17 0-.35.01-.53.01-.19.03-.37.05-.54h-.04l-2.1 5.17h-.89l-2.04-5.17h-.03c.02.36.03.73.03 1.1V370h-.95v-6.43h1.41l2.03 5.17 2.06-5.17h1.4zm3.05 3.92c0 .1 0 .24-.01.43-.01.2-.02.39-.04.58 0 .19-.01.34-.02.46l3.44-5.39h1.3V370h-.98v-4.3c0-.2.01-.41.02-.61.01-.21.02-.36.02-.47L67.96 370h-1.3v-6.43h.99v3.92zm9.3 2.63c-.57 0-1.08-.12-1.53-.35-.44-.23-.78-.59-1.04-1.08-.25-.49-.37-1.11-.37-1.87 0-.79.13-1.44.39-1.93.27-.5.62-.86 1.07-1.09.46-.24.97-.35 1.55-.35.33 0 .64.03.95.11.3.06.55.14.74.24l-.32.87c-.19-.07-.42-.14-.67-.2-.26-.07-.5-.1-.72-.1-1.27 0-1.9.81-1.9 2.44 0 .77.15 1.37.46 1.79.31.4.77.61 1.38.61.35 0 .66-.04.92-.11.27-.07.52-.16.74-.26v.93c-.21.11-.45.2-.72.25-.25.07-.56.1-.93.1zm5.76 0c-.56 0-1.07-.12-1.52-.35-.44-.23-.79-.59-1.04-1.08-.25-.49-.38-1.11-.38-1.87 0-.79.14-1.44.4-1.93.26-.5.62-.86 1.07-1.09.45-.24.97-.35 1.55-.35.32 0 .64.03.94.11.31.06.56.14.75.24l-.33.87c-.19-.07-.41-.14-.67-.2-.25-.07-.49-.1-.72-.1-1.26 0-1.89.81-1.89 2.44 0 .77.15 1.37.45 1.79.31.4.77.61 1.38.61.35 0 .66-.04.93-.11s.52-.16.74-.26v.93c-.22.11-.46.2-.72.25-.26.07-.57.1-.94.1zm4.18-2.63c0 .1 0 .24-.01.43l-.03.58c-.01.19-.02.34-.03.46l3.45-5.39h1.29V370h-.98v-4.3c.01-.2.01-.41.02-.61.01-.21.02-.36.03-.47L87.21 370H85.9v-6.43h.99v3.92zm7.12 2.51h-1.23l1.84-2.7c-.25-.06-.49-.16-.72-.3-.23-.14-.42-.34-.57-.59-.14-.25-.21-.57-.21-.95 0-.61.21-1.08.62-1.4.42-.33.97-.49 1.66-.49h2.88V370h-1.06v-2.56h-1.56L94.01 370zm.13-4.52c0 .36.13.64.41.82.28.18.66.27 1.16.27h1.51v-2.13h-1.71c-.49 0-.84.1-1.06.29-.21.19-.31.44-.31.75zm6.42 4.59c-.2 0-.38-.07-.52-.21a.71.71 0 01-.22-.53c0-.21.07-.39.22-.53.14-.14.32-.22.52-.22s.37.08.51.22.21.32.21.53c0 .21-.07.38-.21.53-.14.14-.31.21-.51.21zm0-5.13c-.2 0-.38-.08-.52-.22a.695.695 0 01-.22-.53c0-.21.07-.38.22-.53.14-.14.32-.21.52-.21s.37.07.51.21c.14.15.21.32.21.53 0 .21-.07.39-.21.53-.14.14-.31.22-.51.22zm4.94-2.62v-1h2.26V370h-1.11v-7.68h-1.15zm3.89.96c0-.54.17-.98.5-1.3.32-.32.74-.49 1.26-.49.51 0 .93.17 1.26.49.32.32.49.76.49 1.3 0 .55-.17.99-.49 1.32-.33.32-.75.48-1.26.48-.52 0-.94-.16-1.26-.48-.33-.33-.5-.77-.5-1.32zm7.01-1.66l-4.86 8.38h-1.08l4.86-8.38h1.08zm-5.25.54a.8.8 0 00-.65.29c-.15.19-.23.46-.23.83 0 .37.08.65.23.84a.8.8 0 00.65.29c.27 0 .48-.1.64-.29.16-.2.24-.48.24-.84 0-.37-.08-.64-.24-.83a.794.794 0 00-.64-.29zm2.84 6.18c0-.55.16-.98.49-1.3.33-.33.75-.5 1.26-.5s.93.17 1.25.5c.33.32.49.75.49 1.3s-.16.98-.49 1.31c-.32.33-.74.49-1.25.49s-.93-.16-1.26-.48c-.33-.32-.49-.76-.49-1.32zm1.74-1.11c-.27 0-.49.09-.65.29-.16.18-.24.46-.24.82 0 .36.08.64.24.83.16.19.38.28.65.28s.49-.09.65-.28c.16-.19.24-.47.24-.83s-.08-.64-.24-.82c-.16-.2-.38-.29-.65-.29z" fill="#fff"/><path d="M270.56 371h-.97l-2.91-3.26V371h-.81v-6.43h.81v3.12l2.84-3.12h.92l-2.79 3.13 2.91 3.3zm4.96-2.42c0 .8-.2 1.41-.61 1.85-.4.44-.95.66-1.64.66-.42 0-.8-.1-1.14-.29-.33-.2-.59-.48-.78-.85-.2-.38-.29-.84-.29-1.37 0-.8.2-1.41.6-1.85.4-.43.95-.64 1.64-.64.44 0 .82.09 1.15.29.34.19.6.48.78.85.2.36.29.81.29 1.35zm-3.64 0c0 .57.11 1.02.33 1.36.23.33.59.49 1.08.49.49 0 .84-.16 1.07-.49.23-.34.34-.79.34-1.36 0-.57-.11-1.02-.34-1.34-.23-.33-.59-.49-1.08-.49-.49 0-.85.16-1.07.49-.22.32-.33.77-.33 1.34zm10.07-2.4V371h-.71v-3.08c0-.12 0-.26.01-.39.01-.14.02-.28.04-.41h-.03l-1.58 3.88h-.66l-1.53-3.88h-.03c.02.27.03.55.03.83V371h-.71v-4.82h1.05l1.52 3.87 1.55-3.87h1.05zm2.29 2.94c0 .07 0 .18-.01.32-.01.15-.01.29-.03.44 0 .14-.01.25-.01.34l2.58-4.04h.97V371H287v-3.22c.01-.16.01-.31.02-.46.01-.16.01-.27.02-.35l-2.57 4.03h-.98v-4.82h.75v2.94zm6.97 1.97c-.43 0-.81-.09-1.14-.26a1.99 1.99 0 01-.79-.81c-.18-.37-.27-.84-.27-1.41 0-.59.09-1.07.29-1.44.2-.38.47-.65.8-.82.35-.18.73-.26 1.16-.26.25 0 .49.02.72.08.22.04.41.1.55.18l-.24.65c-.14-.05-.31-.1-.5-.15-.2-.05-.38-.07-.54-.07-.95 0-1.43.61-1.43 1.83 0 .58.12 1.02.35 1.34.23.3.58.46 1.03.46.27 0 .5-.03.69-.09.21-.05.39-.12.56-.19v.7c-.16.08-.34.15-.54.19-.19.05-.42.07-.7.07zm4.32 0c-.42 0-.8-.09-1.14-.26-.33-.18-.59-.45-.78-.81-.19-.37-.28-.84-.28-1.41 0-.59.1-1.07.3-1.44.19-.38.46-.65.8-.82.34-.18.73-.26 1.16-.26.24 0 .48.02.71.08.23.04.41.1.56.18l-.25.65c-.14-.05-.31-.1-.5-.15-.19-.05-.37-.07-.54-.07-.95 0-1.42.61-1.42 1.83 0 .58.11 1.02.34 1.34.23.3.58.46 1.04.46.26 0 .49-.03.69-.09.2-.05.39-.12.56-.19v.7c-.17.08-.35.15-.54.19-.2.05-.43.07-.71.07zm3.14-1.97c0 .07 0 .18-.01.32 0 .15-.01.29-.02.44-.01.14-.02.25-.02.34l2.58-4.04h.97V371h-.74v-3.22c.01-.16.02-.31.02-.46.01-.16.01-.27.02-.35l-2.56 4.03h-.99v-4.82h.75v2.94zM304 371h-.91l1.37-2.03c-.18-.04-.36-.12-.54-.22-.17-.11-.31-.26-.42-.44-.11-.19-.16-.43-.16-.71 0-.46.15-.82.47-1.06.31-.24.72-.36 1.24-.36h2.16V371h-.79v-1.92h-1.17L304 371zm.1-3.39c0 .27.11.48.31.62.21.13.5.2.87.2h1.14v-1.6h-1.29c-.37 0-.63.07-.79.22-.16.14-.24.33-.24.56zm4.82 3.44c-.15 0-.28-.05-.39-.16a.528.528 0 01-.16-.39c0-.16.05-.29.16-.4.11-.11.24-.16.39-.16.15 0 .28.05.38.16.11.11.16.24.16.4 0 .15-.05.28-.16.39-.1.11-.23.16-.38.16zm0-3.85c-.15 0-.28-.05-.39-.16a.535.535 0 01-.16-.4c0-.15.05-.28.16-.39.11-.11.24-.16.39-.16.15 0 .28.05.38.16.11.11.16.24.16.39 0 .16-.05.29-.16.4-.1.11-.23.16-.38.16zm3.92.48c0-1.03.17-1.84.51-2.41.33-.59.92-.88 1.76-.88s1.42.29 1.76.88c.33.57.5 1.38.5 2.41 0 1.05-.17 1.86-.5 2.45-.34.58-.92.87-1.76.87s-1.43-.29-1.76-.87c-.34-.59-.51-1.4-.51-2.45zm3.72 0c0-.52-.04-.96-.11-1.32-.06-.37-.2-.66-.42-.89-.21-.22-.52-.33-.92-.33-.41 0-.72.11-.93.33-.21.23-.36.52-.43.89-.06.36-.1.8-.1 1.32 0 .54.04.99.1 1.36.07.36.22.66.43.88.21.22.52.33.93.33.4 0 .71-.11.92-.33.22-.22.36-.52.42-.88.07-.37.11-.82.11-1.36zm1.75-1.72c0-.41.13-.73.37-.97.25-.25.56-.37.95-.37.38 0 .7.12.94.37.25.24.37.56.37.97 0 .41-.12.74-.37.99-.24.24-.56.36-.94.36-.39 0-.7-.12-.95-.36-.24-.25-.37-.58-.37-.99zm5.26-1.24l-3.64 6.28h-.81l3.64-6.28h.81zm-3.94.4c-.21 0-.37.07-.49.22-.11.14-.17.34-.17.62 0 .28.06.49.17.63.12.14.28.22.49.22.2 0 .36-.08.48-.22.12-.15.18-.36.18-.63 0-.28-.06-.48-.18-.62a.58.58 0 00-.48-.22zm2.13 4.64c0-.42.12-.74.37-.98.25-.25.56-.37.95-.37.38 0 .69.12.93.37.25.24.37.56.37.98 0 .41-.12.73-.37.98-.24.24-.55.37-.93.37-.39 0-.7-.12-.95-.36-.25-.25-.37-.58-.37-.99zm1.31-.84c-.21 0-.37.07-.49.22-.12.13-.18.34-.18.62 0 .27.06.47.18.62.12.14.28.21.49.21a.6.6 0 00.48-.21c.12-.15.18-.35.18-.62 0-.28-.06-.49-.18-.62a.58.58 0 00-.48-.22z" fill="#0175B6"/><path d="M48.75 386.89c0 .63-.2 1.13-.6 1.51-.4.36-.93.59-1.6.7v.05c.78.1 1.37.35 1.78.73.41.38.61.88.61 1.49 0 .82-.31 1.48-.93 1.99-.63.51-1.56.77-2.81.77-.5 0-.99-.04-1.44-.12-.46-.07-.88-.2-1.27-.39v-1.06c.41.19.85.34 1.33.45.49.11.94.16 1.37.16.83 0 1.46-.16 1.88-.47.43-.31.65-.75.65-1.33 0-.59-.25-1.01-.75-1.28-.51-.27-1.21-.41-2.11-.41h-1.33v-.97h1.27c.91 0 1.6-.15 2.05-.46.46-.31.69-.72.69-1.24 0-.47-.18-.83-.52-1.08-.35-.25-.8-.38-1.35-.38-.58 0-1.07.07-1.46.22-.38.15-.75.34-1.12.57l-.56-.79c.37-.27.81-.49 1.34-.68.54-.19 1.14-.28 1.81-.28 1 0 1.77.21 2.29.65.52.43.78.98.78 1.65zm4.64.02c.85 0 1.47.19 1.88.56.41.38.61.97.61 1.78V394h-.83l-.22-.99h-.05c-.31.38-.63.66-.96.85-.33.18-.79.27-1.38.27-.64 0-1.16-.16-1.58-.49-.41-.34-.62-.87-.62-1.58 0-.69.27-1.22.82-1.6.55-.38 1.39-.59 2.52-.62l1.18-.04v-.42c0-.58-.12-.98-.37-1.2-.25-.23-.61-.34-1.07-.34-.36 0-.71.05-1.04.17-.33.1-.64.22-.92.36l-.35-.86c.3-.16.66-.3 1.08-.41.41-.12.85-.19 1.3-.19zm.33 3.72c-.86.04-1.46.18-1.8.42-.33.24-.5.58-.5 1.03 0 .39.12.67.35.85.25.19.55.28.93.28.59 0 1.08-.16 1.47-.48.39-.33.58-.84.58-1.51v-.63l-1.03.04zm5.32-1.06c0 .79.44 1.19 1.33 1.19.44 0 .83-.06 1.19-.19.35-.14.72-.32 1.09-.55v-2.99h1.14V394h-1.14v-3.11c-.39.25-.78.45-1.16.6-.37.14-.82.21-1.35.21-.71 0-1.26-.19-1.66-.56-.39-.37-.59-.87-.59-1.5v-2.61h1.15v2.54zm8.05 1.71c0 .11-.01.26-.02.47-.01.21-.02.42-.04.63 0 .2-.01.37-.02.49l3.73-5.84h1.4V394h-1.06v-4.65c.01-.23.01-.45.02-.67.01-.22.02-.39.03-.5L67.42 394h-1.41v-6.97h1.08v4.25zm10.07 2.85c-.62 0-1.17-.13-1.66-.38-.47-.25-.85-.64-1.13-1.17-.26-.53-.4-1.2-.4-2.03 0-.85.14-1.55.43-2.09.29-.54.67-.93 1.16-1.18.49-.25 1.05-.38 1.67-.38.36 0 .7.04 1.03.12.33.07.6.15.81.26l-.35.95c-.21-.08-.45-.15-.73-.22a3.25 3.25 0 00-.78-.11c-1.37 0-2.06.88-2.06 2.64 0 .84.17 1.49.5 1.94.34.44.83.66 1.49.66.38 0 .72-.04 1-.12.3-.07.57-.17.81-.28v1.01c-.23.12-.49.22-.78.28-.28.07-.62.1-1.01.1zm8.75-.13h-1.16v-6.02H82.7c-.11 1.47-.27 2.65-.47 3.55-.2.89-.46 1.54-.79 1.95-.33.41-.75.61-1.25.61-.11 0-.22-.01-.34-.02a.893.893 0 01-.26-.07v-.86a1.086 1.086 0 00.35.05c.47 0 .84-.49 1.12-1.49.29-1 .5-2.55.65-4.67h4.2V394zm4.9-7.1c.6 0 1.11.13 1.54.39.43.26.76.63.99 1.11.23.46.35 1.02.35 1.65v.69h-4.77c.01.79.21 1.39.59 1.8.39.41.94.61 1.63.61.44 0 .83-.03 1.17-.11.35-.09.7-.21 1.06-.37v1c-.35.16-.7.27-1.05.34-.35.08-.76.12-1.23.12-.66 0-1.25-.13-1.76-.4-.5-.27-.9-.67-1.18-1.2-.28-.54-.42-1.19-.42-1.96 0-.76.13-1.42.38-1.97.26-.54.62-.96 1.08-1.26.47-.29 1.01-.44 1.62-.44zm-.01.94c-.55 0-.98.18-1.3.53-.31.35-.5.83-.56 1.46h3.55c-.01-.59-.15-1.07-.42-1.43-.26-.38-.69-.56-1.27-.56zm5.8-.81v2.9h3.79v-2.9h1.14V394h-1.14v-3.11H96.6V394h-1.14v-6.97h1.14zm8.22 4.25c0 .11-.01.26-.02.47 0 .21-.02.42-.04.63 0 .2-.01.37-.02.49l3.73-5.84h1.4V394h-1.06v-4.65c.01-.23.02-.45.02-.67.01-.22.02-.39.03-.5l-3.71 5.82h-1.41v-6.97h1.08v4.25zm9.96-4.38c.6 0 1.11.13 1.54.39.43.26.76.63.98 1.11.24.46.36 1.02.36 1.65v.69h-4.78c.02.79.22 1.39.6 1.8.39.41.93.61 1.63.61.44 0 .83-.03 1.17-.11.34-.09.7-.21 1.06-.37v1c-.35.16-.7.27-1.05.34-.35.08-.76.12-1.23.12-.66 0-1.25-.13-1.76-.4-.5-.27-.9-.67-1.18-1.2-.28-.54-.42-1.19-.42-1.96 0-.76.13-1.42.38-1.97.26-.54.62-.96 1.08-1.26.47-.29 1.01-.44 1.62-.44zm-.01.94c-.55 0-.98.18-1.3.53-.31.35-.5.83-.56 1.46h3.55c-.01-.59-.15-1.07-.42-1.43-.27-.38-.69-.56-1.27-.56zm4.93 6.24c-.22 0-.41-.08-.57-.24a.74.74 0 01-.23-.57c0-.22.07-.41.23-.57a.77.77 0 01.57-.23c.22 0 .4.07.55.23.15.16.23.35.23.57 0 .23-.08.42-.23.57a.72.72 0 01-.55.24zm0-5.57a.77.77 0 01-.57-.23.77.77 0 01-.23-.57c0-.23.07-.42.23-.57.16-.16.35-.24.57-.24.22 0 .4.08.55.24.15.15.23.34.23.57 0 .22-.08.41-.23.57-.15.16-.33.23-.55.23zm13.22 5.49h-1.17v-4.33h-4.76V394h-1.17v-9.28h1.17v3.92h4.76v-3.92h1.17V394zm5.07-7.1c.6 0 1.11.13 1.53.39.44.26.77.63.99 1.11.24.46.35 1.02.35 1.65v.69h-4.77c.02.79.22 1.39.6 1.8.39.41.93.61 1.62.61.45 0 .84-.03 1.17-.11.35-.09.71-.21 1.07-.37v1c-.35.16-.71.27-1.05.34-.35.08-.76.12-1.24.12-.66 0-1.24-.13-1.75-.4s-.9-.67-1.19-1.2c-.27-.54-.41-1.19-.41-1.96 0-.76.12-1.42.38-1.97.26-.54.62-.96 1.07-1.26.47-.29 1.01-.44 1.63-.44zm-.01.94c-.55 0-.98.18-1.3.53-.32.35-.5.83-.56 1.46h3.55c-.01-.59-.15-1.07-.42-1.43-.27-.38-.69-.56-1.27-.56zm7.45 6.29c-.61 0-1.16-.13-1.65-.38-.48-.25-.85-.64-1.13-1.17-.27-.53-.4-1.2-.4-2.03 0-.85.14-1.55.43-2.09.28-.54.67-.93 1.15-1.18.5-.25 1.06-.38 1.68-.38.35 0 .7.04 1.03.12.33.07.59.15.8.26l-.35.95c-.21-.08-.45-.15-.73-.22a3.12 3.12 0 00-.78-.11c-1.37 0-2.05.88-2.05 2.64 0 .84.16 1.49.49 1.94.34.44.84.66 1.5.66.38 0 .71-.04 1-.12.29-.07.56-.17.81-.28v1.01c-.24.12-.5.22-.78.28-.28.07-.62.1-1.02.1zm7.57-7.1h1.25l-2.98 3.36 3.23 3.61h-1.33l-3.14-3.54V394h-1.15v-6.97h1.15v3.38l2.97-3.38zm8.57 3.47c0 1.16-.3 2.05-.89 2.68-.58.63-1.37.95-2.36.95-.62 0-1.17-.14-1.65-.42-.48-.28-.86-.69-1.13-1.23-.28-.55-.42-1.21-.42-1.98 0-1.15.29-2.04.87-2.66.58-.63 1.37-.94 2.37-.94.63 0 1.18.14 1.66.43.49.28.86.69 1.13 1.22.28.53.42 1.18.42 1.95zm-5.27 0c0 .83.16 1.48.48 1.97.33.47.85.71 1.56.71.71 0 1.22-.24 1.55-.71.33-.49.49-1.14.49-1.97 0-.82-.16-1.47-.49-1.93-.33-.47-.85-.71-1.56-.71-.71 0-1.23.24-1.55.71-.32.46-.48 1.11-.48 1.93zm12.38 3.5h-1.15v-6.02h-2.06c-.11 1.47-.27 2.65-.46 3.55-.2.89-.47 1.54-.8 1.95-.33.41-.74.61-1.25.61-.11 0-.22-.01-.33-.02a.812.812 0 01-.26-.07v-.86c.05.02.1.03.17.04.06.01.12.01.18.01.47 0 .84-.49 1.12-1.49.28-1 .5-2.55.65-4.67h4.19V394zm5.43-4.11c1.81 0 2.71.66 2.71 1.98 0 .65-.22 1.17-.66 1.56-.44.38-1.14.57-2.1.57h-3.16v-6.97h1.14v2.86h2.07zm1.57 2.04c0-.42-.15-.71-.45-.86-.3-.15-.72-.23-1.25-.23h-1.94v2.24H174c.49 0 .89-.09 1.2-.26.32-.18.48-.47.48-.89zm7.06-4.9h1.24l-2.97 3.36 3.22 3.61h-1.33l-3.14-3.54V394h-1.15v-6.97h1.15v3.38l2.98-3.38zm8.56 3.47c0 1.16-.29 2.05-.88 2.68-.58.63-1.37.95-2.37.95-.62 0-1.17-.14-1.65-.42-.48-.28-.85-.69-1.13-1.23-.28-.55-.42-1.21-.42-1.98 0-1.15.29-2.04.87-2.66.58-.63 1.37-.94 2.37-.94.63 0 1.19.14 1.66.43.49.28.87.69 1.13 1.22.28.53.42 1.18.42 1.95zm-5.27 0c0 .83.17 1.48.49 1.97.33.47.85.71 1.56.71.7 0 1.21-.24 1.54-.71.33-.49.5-1.14.5-1.97 0-.82-.17-1.47-.5-1.93-.33-.47-.85-.71-1.56-.71-.71 0-1.22.24-1.54.71-.32.46-.49 1.11-.49 1.93zm18.02-3.47V394h-1.02v-4.45c0-.18 0-.37.01-.57.02-.2.03-.39.05-.58h-.04l-2.27 5.6h-.96l-2.21-5.6h-.04c.02.39.04.79.04 1.19V394h-1.03v-6.97h1.52l2.2 5.6 2.23-5.6h1.52zm3.31 4.25c0 .11-.01.26-.02.47 0 .21-.02.42-.04.63 0 .2-.01.37-.02.49l3.73-5.84h1.4V394h-1.06v-4.65c.01-.23.02-.45.02-.67.01-.22.02-.39.03-.5l-3.71 5.82h-1.41v-6.97h1.08v4.25zm8.42-4.25v2.9h3.78v-2.9h1.14V394h-1.14v-3.11h-3.78V394h-1.15v-6.97h1.15zm6.04 0h1.22l1.51 3.97c.13.34.24.68.35 1 .1.31.18.61.23.89h.05c.06-.21.14-.49.25-.84.11-.36.23-.71.35-1.07l1.42-3.95h1.23l-3 7.93c-.24.66-.56 1.19-.95 1.58-.38.39-.91.58-1.58.58-.21 0-.39-.01-.55-.04-.16-.02-.29-.04-.4-.06v-.91c.09.01.2.03.33.05.14.02.29.02.43.02.4 0 .72-.11.97-.33.25-.23.44-.53.58-.9l.36-.92-2.8-7zm12.53.96h-2.28V394h-1.13v-6.01h-2.25v-.96h5.66v.96z" fill="#fff"/><path d="M269.67 384.08c0 .43-.14.78-.41 1.04-.28.25-.65.41-1.11.49v.03c.54.07.95.24 1.23.51.29.26.43.61.43 1.03 0 .57-.22 1.02-.65 1.38-.43.35-1.08.53-1.95.53a6.3 6.3 0 01-.99-.08c-.32-.05-.61-.14-.88-.27V388c.28.13.59.24.92.32.34.07.65.1.95.1.57 0 1.01-.1 1.3-.32.3-.22.45-.52.45-.92 0-.41-.17-.7-.52-.89-.35-.19-.84-.28-1.46-.28h-.92v-.67h.88c.63 0 1.11-.11 1.42-.32.32-.21.47-.5.47-.86 0-.33-.12-.58-.36-.75-.24-.17-.55-.26-.93-.26-.4 0-.74.05-1.01.15-.26.1-.52.24-.77.4l-.39-.55c.25-.19.56-.34.93-.47.37-.13.79-.2 1.25-.2.69 0 1.22.15 1.58.45.36.3.54.68.54 1.15zm3.21.01c.59 0 1.03.13 1.31.39s.42.67.42 1.23V389h-.57l-.16-.68h-.03c-.21.26-.44.45-.67.58-.23.13-.55.19-.95.19-.44 0-.8-.11-1.09-.34-.29-.24-.43-.6-.43-1.09 0-.48.18-.85.56-1.11.38-.26.96-.41 1.75-.43l.82-.03v-.29c0-.4-.09-.68-.26-.83-.18-.16-.42-.24-.74-.24-.25 0-.49.04-.72.12-.23.07-.44.16-.64.25l-.24-.59c.21-.12.46-.21.74-.29.29-.08.59-.13.9-.13zm.24 2.58c-.6.02-1.02.12-1.25.29-.23.16-.35.4-.35.71 0 .27.09.47.25.59.17.13.38.19.64.19.4 0 .74-.11 1.01-.33.27-.23.41-.58.41-1.05v-.43l-.71.03zm3.67-.74c0 .55.31.83.93.83.3 0 .57-.05.82-.14.25-.09.5-.22.76-.37v-2.07h.79V389h-.79v-2.15c-.27.17-.54.31-.81.41-.25.1-.57.15-.93.15-.49 0-.88-.13-1.15-.39-.27-.26-.41-.6-.41-1.04v-1.8h.79v1.75zm5.58 1.19c0 .07-.01.18-.01.32l-.03.44c0 .14-.01.25-.02.34l2.59-4.04h.97V389h-.74v-3.22c.01-.16.01-.31.02-.46 0-.16.01-.27.02-.35L282.6 389h-.98v-4.82h.75v2.94zm6.97 1.97c-.43 0-.81-.09-1.14-.26-.33-.18-.6-.45-.79-.81-.18-.37-.28-.84-.28-1.41 0-.59.1-1.07.3-1.44.2-.38.47-.65.8-.82.34-.18.73-.26 1.16-.26.25 0 .49.02.71.08.23.04.42.1.56.18l-.24.65c-.15-.05-.31-.1-.51-.15-.19-.05-.37-.07-.54-.07-.94 0-1.42.61-1.42 1.83 0 .58.12 1.02.34 1.34.24.3.58.46 1.04.46.26 0 .49-.03.69-.09.21-.05.39-.12.56-.19v.7c-.16.08-.34.15-.54.19-.19.05-.43.07-.7.07zm6.06-.09h-.8v-4.17h-1.42c-.08 1.02-.19 1.84-.33 2.46-.14.62-.32 1.07-.55 1.35-.22.28-.51.42-.86.42-.08 0-.16 0-.23-.01a.564.564 0 01-.18-.05v-.59c.03.01.07.02.11.02.04.01.09.01.13.01.32 0 .58-.34.77-1.03.2-.69.35-1.77.45-3.23h2.91V389zm3.39-4.91c.42 0 .77.09 1.07.27.3.18.52.43.68.76.16.32.24.71.24 1.14v.48h-3.3c.01.55.15.96.41 1.25.27.28.65.42 1.13.42.31 0 .58-.02.81-.08.24-.06.49-.14.74-.25v.69c-.25.11-.49.19-.73.24-.24.05-.53.08-.86.08-.45 0-.86-.09-1.21-.28a1.99 1.99 0 01-.82-.83c-.19-.37-.29-.82-.29-1.36 0-.52.09-.98.26-1.36.18-.37.43-.66.75-.87.32-.2.7-.3 1.12-.3zm0 .64c-.38 0-.68.13-.9.37-.22.24-.35.58-.39 1.01h2.46c-.01-.41-.11-.74-.29-.99-.19-.26-.48-.39-.88-.39zm4.01-.55v2h2.62v-2h.79V389h-.79v-2.15h-2.62V389h-.79v-4.82h.79zm5.69 2.94c0 .07 0 .18-.01.32l-.03.44c0 .14-.01.25-.02.34l2.59-4.04h.97V389h-.74v-3.22c.01-.16.01-.31.02-.46.01-.16.01-.27.02-.35l-2.57 4.03h-.98v-4.82h.75v2.94zm6.9-3.03c.41 0 .77.09 1.06.27.3.18.53.43.68.76.17.32.25.71.25 1.14v.48h-3.31c.02.55.15.96.42 1.25.27.28.64.42 1.12.42.31 0 .58-.02.81-.08.24-.06.49-.14.74-.25v.69c-.25.11-.49.19-.73.24-.24.05-.52.08-.85.08-.46 0-.86-.09-1.22-.28a1.99 1.99 0 01-.82-.83c-.19-.37-.29-.82-.29-1.36 0-.52.09-.98.27-1.36.18-.37.42-.66.74-.87.33-.2.7-.3 1.13-.3zm-.01.64c-.38 0-.68.13-.9.37-.22.24-.35.58-.39 1.01h2.46c-.01-.41-.1-.74-.29-.99-.19-.26-.48-.39-.88-.39zm3.41 4.32c-.15 0-.28-.05-.39-.16a.528.528 0 01-.16-.39c0-.16.05-.29.16-.4.11-.11.24-.16.39-.16.15 0 .28.05.38.16.11.11.16.24.16.4 0 .15-.05.28-.16.39-.1.11-.23.16-.38.16zm0-3.85c-.15 0-.28-.05-.39-.16a.535.535 0 01-.16-.4c0-.15.05-.28.16-.39.11-.11.24-.16.39-.16.15 0 .28.05.38.16.11.11.16.24.16.39 0 .16-.05.29-.16.4-.1.11-.23.16-.38.16zm9.15 3.8h-.81v-3h-3.29v3h-.81v-6.43h.81v2.72h3.29v-2.72h.81V389zm3.51-4.91c.42 0 .77.09 1.07.27.3.18.52.43.68.76.16.32.24.71.24 1.14v.48h-3.3c.01.55.15.96.41 1.25.27.28.65.42 1.13.42.31 0 .58-.02.81-.08.24-.06.49-.14.74-.25v.69c-.25.11-.49.19-.73.24-.24.05-.53.08-.86.08-.45 0-.86-.09-1.21-.28a1.99 1.99 0 01-.82-.83c-.19-.37-.29-.82-.29-1.36 0-.52.09-.98.26-1.36.18-.37.43-.66.75-.87.32-.2.7-.3 1.12-.3zm0 .64c-.38 0-.68.13-.9.37-.22.24-.35.58-.39 1.01h2.46c-.01-.41-.11-.74-.29-.99-.19-.26-.48-.39-.88-.39zm5.16 4.36c-.43 0-.81-.09-1.15-.26-.33-.18-.59-.45-.78-.81-.19-.37-.28-.84-.28-1.41 0-.59.1-1.07.3-1.44.2-.38.46-.65.8-.82.34-.18.73-.26 1.16-.26.25 0 .48.02.71.08.23.04.42.1.56.18l-.24.65c-.15-.05-.32-.1-.51-.15-.19-.05-.37-.07-.54-.07-.95 0-1.42.61-1.42 1.83 0 .58.11 1.02.34 1.34.24.3.58.46 1.04.46.26 0 .49-.03.69-.09.2-.05.39-.12.56-.19v.7c-.16.08-.34.15-.54.19-.19.05-.43.07-.7.07zm5.24-4.91h.86l-2.06 2.32 2.23 2.5h-.91l-2.18-2.45V389H339v-4.82h.79v2.34l2.06-2.34zm5.93 2.4c0 .8-.21 1.41-.61 1.85-.41.44-.95.66-1.64.66-.43 0-.81-.1-1.15-.29-.33-.2-.59-.48-.78-.85-.19-.38-.29-.84-.29-1.37 0-.8.2-1.41.61-1.85.4-.43.94-.64 1.63-.64.44 0 .83.09 1.16.29.33.19.59.48.78.85.19.36.29.81.29 1.35zm-3.65 0c0 .57.11 1.02.34 1.36.22.33.58.49 1.08.49.48 0 .84-.16 1.07-.49.22-.34.34-.79.34-1.36 0-.57-.12-1.02-.34-1.34-.23-.33-.59-.49-1.08-.49-.5 0-.85.16-1.07.49-.23.32-.34.77-.34 1.34zm8.57 2.42h-.8v-4.17h-1.42c-.08 1.02-.18 1.84-.32 2.46-.14.62-.32 1.07-.55 1.35-.23.28-.52.42-.87.42-.07 0-.15 0-.23-.01a.776.776 0 01-.18-.05v-.59c.04.01.08.02.12.02.04.01.08.01.12.01.33 0 .59-.34.78-1.03.2-.69.35-1.77.45-3.23h2.9V389zm3.76-2.84c1.25 0 1.88.45 1.88 1.36 0 .45-.15.81-.46 1.08-.31.27-.79.4-1.46.4h-2.18v-4.82h.79v1.98h1.43zm1.09 1.41c0-.3-.11-.49-.32-.6-.2-.1-.49-.16-.86-.16h-1.34v1.55h1.36c.33 0 .61-.06.82-.18.23-.12.34-.32.34-.61zm4.88-3.39h.87l-2.06 2.32 2.23 2.5h-.92l-2.18-2.45V389h-.79v-4.82h.79v2.34l2.06-2.34zm5.93 2.4c0 .8-.2 1.41-.61 1.85-.4.44-.95.66-1.64.66-.42 0-.81-.1-1.14-.29-.33-.2-.59-.48-.78-.85-.2-.38-.29-.84-.29-1.37 0-.8.2-1.41.6-1.85.4-.43.95-.64 1.64-.64.44 0 .82.09 1.15.29.34.19.6.48.78.85.2.36.29.81.29 1.35zm-3.64 0c0 .57.11 1.02.33 1.36.23.33.59.49 1.08.49.49 0 .84-.16 1.07-.49.23-.34.34-.79.34-1.36 0-.57-.11-1.02-.34-1.34-.23-.33-.59-.49-1.08-.49-.49 0-.85.16-1.07.49-.22.32-.33.77-.33 1.34zm12.47-2.4V389h-.71v-3.08c0-.12 0-.26.01-.39l.03-.41h-.02l-1.58 3.88h-.66l-1.53-3.88h-.03c.02.27.03.55.03.83V389h-.71v-4.82h1.05l1.52 3.87 1.55-3.87h1.05zm2.29 2.94c0 .07-.01.18-.01.32l-.03.44c0 .14-.01.25-.02.34l2.59-4.04h.97V389h-.74v-3.22c.01-.16.01-.31.02-.46 0-.16.01-.27.02-.35l-2.57 4.03h-.98v-4.82h.75v2.94zm5.83-2.94v2h2.62v-2h.79V389h-.79v-2.15h-2.62V389h-.8v-4.82h.8zm4.18 0h.84l1.05 2.74c.09.24.17.47.24.69.07.22.13.43.16.62h.04c.04-.15.09-.34.17-.58.08-.25.16-.49.24-.74l.98-2.73h.86l-2.08 5.49c-.17.45-.39.82-.66 1.09-.26.27-.63.4-1.09.4-.15 0-.27-.01-.38-.03-.11-.01-.2-.02-.28-.04v-.63c.06.01.14.02.23.03.1.02.2.02.3.02.28 0 .5-.08.67-.23.17-.16.3-.36.4-.62l.25-.64-1.94-4.84zm8.67.66h-1.57V389h-.79v-4.16h-1.55v-.66h3.91v.66z" fill="#0175B6"/><path d="M49.94 417h-1.17v-8.26h-2.93c-.08.65-.17 1.32-.26 2.03-.1.7-.2 1.38-.29 2.02-.1.64-.19 1.19-.29 1.64-.11.58-.25 1.07-.41 1.48-.17.41-.39.71-.67.92-.26.21-.62.31-1.06.31-.15 0-.3-.01-.46-.05-.14-.02-.27-.06-.39-.1v-.98c.1.05.21.08.33.12.12.02.25.04.39.04.26 0 .46-.11.61-.31.16-.22.28-.49.36-.8.09-.32.16-.63.22-.95.07-.33.16-.81.25-1.44.11-.64.21-1.39.33-2.23.12-.85.24-1.76.36-2.72h5.08V417zm3.45-2.72c0 .11-.01.26-.01.47-.01.21-.03.42-.04.63-.01.2-.02.37-.03.49l3.73-5.84h1.41V417h-1.07v-4.65l.03-.67c0-.22.01-.39.02-.5l-3.7 5.82h-1.42v-6.97h1.08v4.25zm14.75-4.25V417h-1.03v-4.45c0-.18 0-.37.01-.57l.06-.58h-.04l-2.28 5.6h-.96l-2.21-5.6h-.04c.03.39.04.79.04 1.19V417h-1.03v-6.97h1.52l2.2 5.6 2.24-5.6h1.52zm3.3 4.25c0 .11 0 .26-.01.47-.01.21-.02.42-.04.63-.01.2-.02.37-.03.49l3.73-5.84h1.41V417h-1.07v-4.65l.03-.67c.01-.22.02-.39.02-.5l-3.7 5.82h-1.42v-6.97h1.08v4.25zm12.09-3.29h-2.28V417h-1.13v-6.01h-2.25v-.96h5.66v.96zm1.64 6.09c-.22 0-.42-.08-.57-.24a.748.748 0 01-.24-.57c0-.22.08-.41.24-.57.15-.16.35-.23.57-.23.22 0 .4.07.55.23.15.16.23.35.23.57 0 .23-.08.42-.23.57a.72.72 0 01-.55.24zm0-5.57c-.22 0-.42-.07-.57-.23a.779.779 0 01-.24-.57c0-.23.08-.42.24-.57.15-.16.35-.24.57-.24.22 0 .4.08.55.24.15.15.23.34.23.57 0 .22-.08.41-.23.57-.15.16-.33.23-.55.23zm5.35-2.83v-1.08h2.44v9.4h-1.19v-8.32h-1.25zM95 412.2c0-1.49.24-2.65.72-3.48.49-.84 1.34-1.26 2.55-1.26 1.21 0 2.05.42 2.54 1.26.48.83.73 1.99.73 3.48 0 1.52-.25 2.7-.73 3.54-.49.84-1.33 1.26-2.54 1.26s-2.06-.42-2.55-1.26c-.48-.84-.72-2.02-.72-3.54zm5.37 0c0-.75-.06-1.39-.16-1.91-.1-.53-.3-.95-.61-1.27-.3-.32-.75-.48-1.33-.48-.59 0-1.04.16-1.35.48-.3.32-.51.74-.61 1.27-.1.52-.14 1.16-.14 1.91 0 .78.04 1.44.14 1.97.1.52.31.95.61 1.27.31.32.76.48 1.35.48.58 0 1.03-.16 1.33-.48.31-.32.51-.75.61-1.27.1-.53.16-1.19.16-1.97zm2.79 0c0-1.49.24-2.65.73-3.48.48-.84 1.33-1.26 2.55-1.26 1.2 0 2.05.42 2.53 1.26.49.83.73 1.99.73 3.48 0 1.52-.24 2.7-.73 3.54-.48.84-1.33 1.26-2.53 1.26-1.22 0-2.07-.42-2.55-1.26-.49-.84-.73-2.02-.73-3.54zm5.37 0c0-.75-.05-1.39-.16-1.91-.09-.53-.3-.95-.61-1.27-.3-.32-.74-.48-1.32-.48-.59 0-1.04.16-1.36.48-.3.32-.5.74-.61 1.27-.09.52-.14 1.16-.14 1.91 0 .78.05 1.44.14 1.97.11.52.31.95.61 1.27.32.32.77.48 1.36.48.58 0 1.02-.16 1.32-.48.31-.32.52-.75.61-1.27.11-.53.16-1.19.16-1.97zm6.26 0c0-1.49.24-2.65.73-3.48.48-.84 1.33-1.26 2.54-1.26s2.05.42 2.54 1.26c.48.83.73 1.99.73 3.48 0 1.52-.25 2.7-.73 3.54-.49.84-1.33 1.26-2.54 1.26s-2.06-.42-2.54-1.26c-.49-.84-.73-2.02-.73-3.54zm5.37 0c0-.75-.05-1.39-.16-1.91-.09-.53-.3-.95-.61-1.27-.3-.32-.74-.48-1.33-.48-.58 0-1.04.16-1.35.48-.3.32-.5.74-.61 1.27-.09.52-.14 1.16-.14 1.91 0 .78.05 1.44.14 1.97.11.52.31.95.61 1.27.31.32.77.48 1.35.48.59 0 1.03-.16 1.33-.48.31-.32.52-.75.61-1.27.11-.53.16-1.19.16-1.97zm2.79 0c0-1.49.24-2.65.73-3.48.48-.84 1.33-1.26 2.55-1.26 1.2 0 2.05.42 2.53 1.26.49.83.73 1.99.73 3.48 0 1.52-.24 2.7-.73 3.54-.48.84-1.33 1.26-2.53 1.26-1.22 0-2.07-.42-2.55-1.26-.49-.84-.73-2.02-.73-3.54zm5.37 0c0-.75-.05-1.39-.16-1.91-.09-.53-.29-.95-.61-1.27-.3-.32-.74-.48-1.32-.48-.59 0-1.04.16-1.35.48-.31.32-.51.74-.62 1.27-.09.52-.14 1.16-.14 1.91 0 .78.05 1.44.14 1.97.11.52.31.95.62 1.27.31.32.76.48 1.35.48.58 0 1.02-.16 1.32-.48.32-.32.52-.75.61-1.27.11-.53.16-1.19.16-1.97zm2.79 0c0-1.49.25-2.65.73-3.48.49-.84 1.34-1.26 2.55-1.26 1.21 0 2.05.42 2.54 1.26.48.83.72 1.99.72 3.48 0 1.52-.24 2.7-.72 3.54-.49.84-1.33 1.26-2.54 1.26s-2.06-.42-2.55-1.26c-.48-.84-.73-2.02-.73-3.54zm5.37 0c0-.75-.05-1.39-.15-1.91-.1-.53-.3-.95-.61-1.27-.31-.32-.75-.48-1.33-.48-.59 0-1.04.16-1.35.48-.3.32-.51.74-.61 1.27-.1.52-.15 1.16-.15 1.91 0 .78.05 1.44.15 1.97.1.52.31.95.61 1.27.31.32.76.48 1.35.48.58 0 1.02-.16 1.33-.48.31-.32.51-.75.61-1.27.1-.53.15-1.19.15-1.97zm9.18-4.48c1.21 0 2.09.24 2.65.71.55.48.83 1.15.83 2.02 0 .51-.12.99-.35 1.44-.23.44-.61.8-1.16 1.08-.54.28-1.27.42-2.2.42h-1.06V417h-1.17v-9.28h2.46zm-.11 1h-1.18v3.66h.93c.89 0 1.55-.14 1.98-.42.43-.29.65-.78.65-1.46 0-.6-.19-1.04-.57-1.34-.38-.29-.99-.44-1.81-.44zm9.68-3.97l-3.56 14.46h-1.17l3.55-14.46h1.18zm9.34 5.28V417h-1.03v-4.45c0-.18.01-.37.02-.57.01-.2.03-.39.05-.58h-.04l-2.27 5.6h-.97l-2.21-5.6h-.04c.03.39.04.79.04 1.19V417h-1.02v-6.97h1.52l2.19 5.6 2.24-5.6h1.52zm4.92-.13c.59 0 1.11.13 1.53.39.43.26.76.63.99 1.11.23.46.35 1.02.35 1.65v.69h-4.77c.02.79.22 1.39.6 1.8.39.41.93.61 1.62.61.44 0 .83-.03 1.17-.11.35-.09.7-.21 1.07-.37v1c-.36.16-.71.27-1.06.34-.34.08-.75.12-1.23.12-.66 0-1.24-.13-1.76-.4-.5-.27-.89-.67-1.18-1.2-.28-.54-.41-1.19-.41-1.96 0-.76.12-1.42.37-1.97.26-.54.62-.96 1.08-1.26.47-.29 1.01-.44 1.63-.44zm-.02.94c-.54 0-.98.18-1.3.53-.31.35-.49.83-.56 1.46h3.55c-.01-.59-.14-1.07-.41-1.43-.27-.38-.7-.56-1.28-.56zm7.46 6.29c-.62 0-1.17-.13-1.65-.38s-.86-.64-1.13-1.17c-.27-.53-.41-1.2-.41-2.03 0-.85.15-1.55.43-2.09.29-.54.67-.93 1.16-1.18.49-.25 1.05-.38 1.68-.38.35 0 .69.04 1.02.12.33.07.6.15.81.26l-.35.95c-.21-.08-.45-.15-.73-.22a3.25 3.25 0 00-.78-.11c-1.37 0-2.05.88-2.05 2.64 0 .84.16 1.49.49 1.94.34.44.84.66 1.5.66.38 0 .71-.04 1-.12.29-.07.56-.17.8-.28v1.01c-.23.12-.49.22-.78.28-.28.07-.61.1-1.01.1zm3.72-.05c-.22 0-.41-.08-.57-.24a.74.74 0 01-.23-.57c0-.22.07-.41.23-.57a.77.77 0 01.57-.23c.22 0 .4.07.55.23.15.16.23.35.23.57 0 .23-.08.42-.23.57a.72.72 0 01-.55.24z" fill="#fff"/><path d="M270.5 412h-.81v-5.72h-2.03c-.06.45-.12.92-.18 1.41-.07.48-.14.95-.2 1.39-.07.45-.13.83-.2 1.14-.08.4-.17.74-.29 1.02-.11.29-.27.5-.46.64-.18.15-.43.22-.74.22-.1 0-.2-.01-.31-.04-.1-.01-.19-.04-.27-.07v-.67c.07.03.14.05.22.08.09.01.18.02.27.02.18 0 .33-.07.43-.21.11-.15.19-.34.25-.55.06-.22.11-.44.15-.66.05-.23.11-.56.17-1 .08-.44.15-.96.23-1.54.08-.59.17-1.22.25-1.89h3.52V412zm2.38-1.88v.32l-.03.44c-.01.14-.01.25-.02.34l2.58-4.04h.98V412h-.74v-3.22c0-.16.01-.31.02-.46 0-.16.01-.27.01-.35l-2.56 4.03h-.98v-4.82h.74v2.94zm10.22-2.94V412h-.72v-3.08c0-.12.01-.26.01-.39.02-.14.03-.28.04-.41h-.03l-1.57 3.88h-.67l-1.53-3.88h-.03c.02.27.03.55.03.83V412h-.71v-4.82h1.05l1.52 3.87 1.55-3.87h1.06zm2.28 2.94c0 .07 0 .18-.01.32 0 .15-.01.29-.02.44-.01.14-.02.25-.02.34l2.58-4.04h.97V412h-.73v-3.22c0-.16.01-.31.01-.46.01-.16.02-.27.02-.35l-2.56 4.03h-.98v-4.82h.74v2.94zm8.37-2.28h-1.58V412h-.78v-4.16h-1.56v-.66h3.92v.66zm1.14 4.21c-.16 0-.29-.05-.4-.16a.528.528 0 01-.16-.39c0-.16.05-.29.16-.4.11-.11.24-.16.4-.16.15 0 .27.05.38.16a.57.57 0 010 .79c-.11.11-.23.16-.38.16zm0-3.85c-.16 0-.29-.05-.4-.16a.535.535 0 01-.16-.4c0-.15.05-.28.16-.39.11-.11.24-.16.4-.16.15 0 .27.05.38.16a.57.57 0 010 .79c-.11.11-.23.16-.38.16zm3.7-1.96v-.75h1.69V412h-.82v-5.76h-.87zm3.1 2.44c0-1.03.17-1.84.5-2.41.34-.59.93-.88 1.77-.88.83 0 1.42.29 1.75.88.34.57.51 1.38.51 2.41 0 1.05-.17 1.86-.51 2.45-.33.58-.92.87-1.75.87-.84 0-1.43-.29-1.77-.87-.33-.59-.5-1.4-.5-2.45zm3.72 0c0-.52-.04-.96-.11-1.32-.07-.37-.21-.66-.42-.89-.21-.22-.52-.33-.92-.33-.41 0-.72.11-.94.33-.21.23-.35.52-.42.89-.07.36-.1.8-.1 1.32 0 .54.03.99.1 1.36.07.36.21.66.42.88.22.22.53.33.94.33.4 0 .71-.11.92-.33.21-.22.35-.52.42-.88.07-.37.11-.82.11-1.36zm1.93 0c0-1.03.17-1.84.51-2.41.33-.59.92-.88 1.76-.88.83 0 1.42.29 1.75.88.34.57.51 1.38.51 2.41 0 1.05-.17 1.86-.51 2.45-.33.58-.92.87-1.75.87-.84 0-1.43-.29-1.76-.87-.34-.59-.51-1.4-.51-2.45zm3.72 0c0-.52-.04-.96-.11-1.32-.07-.37-.21-.66-.42-.89-.21-.22-.52-.33-.92-.33-.41 0-.72.11-.94.33-.21.23-.35.52-.42.89-.07.36-.1.8-.1 1.32 0 .54.03.99.1 1.36.07.36.21.66.42.88.22.22.53.33.94.33.4 0 .71-.11.92-.33.21-.22.35-.52.42-.88.07-.37.11-.82.11-1.36zm4.33 0c0-1.03.17-1.84.51-2.41.33-.59.92-.88 1.76-.88.83 0 1.42.29 1.75.88.34.57.51 1.38.51 2.41 0 1.05-.17 1.86-.51 2.45-.33.58-.92.87-1.75.87-.84 0-1.43-.29-1.76-.87-.34-.59-.51-1.4-.51-2.45zm3.72 0c0-.52-.04-.96-.11-1.32-.07-.37-.21-.66-.42-.89-.21-.22-.52-.33-.92-.33-.41 0-.72.11-.94.33-.21.23-.35.52-.42.89-.07.36-.1.8-.1 1.32 0 .54.03.99.1 1.36.07.36.21.66.42.88.22.22.53.33.94.33.4 0 .71-.11.92-.33.21-.22.35-.52.42-.88.07-.37.11-.82.11-1.36zm1.93 0c0-1.03.17-1.84.51-2.41.33-.59.92-.88 1.76-.88s1.42.29 1.76.88c.33.57.5 1.38.5 2.41 0 1.05-.17 1.86-.5 2.45-.34.58-.92.87-1.76.87s-1.43-.29-1.76-.87c-.34-.59-.51-1.4-.51-2.45zm3.72 0c0-.52-.04-.96-.11-1.32-.06-.37-.2-.66-.42-.89-.21-.22-.52-.33-.92-.33-.41 0-.72.11-.93.33-.21.23-.36.52-.43.89-.06.36-.1.8-.1 1.32 0 .54.04.99.1 1.36.07.36.22.66.43.88.21.22.52.33.93.33.4 0 .71-.11.92-.33.22-.22.36-.52.42-.88.07-.37.11-.82.11-1.36zm1.93 0c0-1.03.17-1.84.51-2.41.33-.59.92-.88 1.76-.88s1.42.29 1.76.88c.33.57.5 1.38.5 2.41 0 1.05-.17 1.86-.5 2.45-.34.58-.92.87-1.76.87s-1.43-.29-1.76-.87c-.34-.59-.51-1.4-.51-2.45zm3.72 0c0-.52-.03-.96-.11-1.32-.06-.37-.2-.66-.42-.89-.21-.22-.52-.33-.92-.33-.41 0-.72.11-.93.33-.21.23-.35.52-.43.89-.06.36-.1.8-.1 1.32 0 .54.04.99.1 1.36.08.36.22.66.43.88.21.22.52.33.93.33.4 0 .71-.11.92-.33.22-.22.36-.52.42-.88.08-.37.11-.82.11-1.36zm6.35-3.11c.84 0 1.45.17 1.84.5.38.33.57.79.57 1.39 0 .36-.08.69-.24 1-.16.31-.42.56-.8.75-.37.19-.88.29-1.52.29h-.74v2.5h-.81v-6.43h1.7zm-.07.7h-.82v2.53h.65c.61 0 1.07-.09 1.37-.29.3-.2.45-.54.45-1.01 0-.41-.14-.72-.4-.93-.26-.2-.68-.3-1.25-.3zm6.7-2.75l-2.47 10.01h-.81l2.46-10.01h.82zm6.47 3.66V412h-.71v-3.47c.02-.14.03-.28.04-.41h-.03l-1.57 3.88h-.67l-1.53-3.88h-.02c.01.27.02.55.02.83V412h-.71v-4.82h1.05l1.53 3.87 1.54-3.87h1.06zm3.4-.09c.41 0 .77.09 1.06.27.3.18.53.43.69.76.16.32.24.71.24 1.14v.48h-3.3c.01.55.15.96.41 1.25.27.28.64.42 1.12.42.31 0 .58-.02.81-.08.24-.06.49-.14.74-.25v.69c-.24.11-.49.19-.73.24-.24.05-.52.08-.85.08-.46 0-.86-.09-1.22-.28-.34-.19-.62-.46-.82-.83-.19-.37-.28-.82-.28-1.36 0-.52.08-.98.26-1.36.18-.37.43-.66.74-.87.33-.2.7-.3 1.13-.3zm-.01.64c-.38 0-.68.13-.9.37-.22.24-.34.58-.39 1.01h2.46c-.01-.41-.1-.74-.29-.99-.18-.26-.48-.39-.88-.39zm5.16 4.36c-.42 0-.81-.09-1.14-.26-.33-.18-.59-.45-.78-.81-.19-.37-.28-.84-.28-1.41 0-.59.1-1.07.29-1.44.2-.38.47-.65.8-.82.35-.18.73-.26 1.17-.26.24 0 .48.02.71.08.22.04.41.1.55.18l-.24.65c-.14-.05-.31-.1-.5-.15-.19-.05-.37-.07-.54-.07-.95 0-1.42.61-1.42 1.83 0 .58.11 1.02.34 1.34.23.3.58.46 1.03.46.27 0 .5-.03.7-.09.2-.05.39-.12.55-.19v.7c-.16.08-.34.15-.54.19-.19.05-.42.07-.7.07zm2.58-.04c-.16 0-.29-.05-.4-.16a.57.57 0 010-.79c.11-.11.24-.16.4-.16.15 0 .28.05.38.16.11.11.16.24.16.4 0 .15-.05.28-.16.39-.1.11-.23.16-.38.16z" fill="#0175B6"/><path d="M56.11 279.48c-.19.48-.47.86-.83 1.12-.36.26-.81.39-1.33.39-.46 0-.88-.12-1.26-.36-.38-.23-.68-.58-.89-1.04-.23-.46-.34-1.03-.34-1.69 0-.65.11-1.21.34-1.67.21-.47.51-.82.89-1.06.38-.24.8-.36 1.26-.36.51 0 .95.14 1.33.4.37.27.65.64.83 1.11.17-.54.46-.96.87-1.28.41-.32.9-.48 1.48-.48.57 0 1.06.14 1.49.42.41.28.74.67.97 1.18.23.51.34 1.09.34 1.74 0 .66-.11 1.24-.34 1.75-.23.49-.56.88-.97 1.15-.43.28-.92.42-1.49.42-.58 0-1.07-.16-1.49-.47-.42-.31-.7-.73-.86-1.27zm-2.01-3.53c-.53 0-.94.18-1.23.52-.28.35-.42.83-.42 1.43s.14 1.08.42 1.42c.29.35.7.52 1.24.52.49 0 .88-.18 1.17-.53.29-.37.44-.83.44-1.41s-.15-1.04-.44-1.4c-.3-.36-.7-.55-1.18-.55zm2.53 1.95c0 .65.15 1.17.46 1.58.29.41.74.61 1.34.61.55 0 1-.2 1.33-.59.34-.39.51-.93.51-1.6 0-.66-.17-1.19-.51-1.58-.33-.39-.78-.59-1.33-.59-.58 0-1.03.2-1.33.6-.31.4-.47.92-.47 1.57z" fill="#fff"/><path d="M52 256v-1c0-2.76 2.24-5 5-5h1" stroke="#fff"/><path d="M51 256h78" stroke="#45A1D5"/><path d="M46 263v-2c0-2.76 2.24-5 5-5h9" stroke="#45A1D4"/><path d="M58 250h81" stroke="#fff"/><path d="M134 296v-35c0-2.76-2.24-5-5-5h-14" stroke="#45A1D5"/><path d="M144 301v-46c0-2.76-2.24-5-5-5h-14m-4 13H47c-2.76 0-5 2.24-5 5v37c0 2.76 2.24 5 5 5h56" stroke="#fff"/><path d="M126 289v-21c0-2.76-2.24-5-5-5h-13.53M52 288.5h18m8 0h18m-18 5h21m-47 0h20m46 23c7.456 0 13.5-6.044 13.5-13.5s-6.044-13.5-13.5-13.5-13.5 6.044-13.5 13.5 6.044 13.5 13.5 13.5z" stroke="#fff"/><path d="M43.17 344v-9.28h5.86v1.62h-3.9v1.94h.78c.88 0 1.59.12 2.15.36.56.25.98.58 1.25 1 .26.43.4.91.4 1.46 0 .92-.31 1.63-.92 2.15-.61.5-1.58.75-2.92.75h-2.7zm2.63-1.61c.59 0 1.06-.1 1.4-.29.35-.19.52-.52.52-1 0-.49-.19-.82-.56-.97-.37-.16-.88-.24-1.52-.24h-.51v2.5h.67zm8.42-5.63c.95 0 1.68.21 2.18.62.51.41.77 1.04.77 1.89V344h-1.35l-.38-.96h-.05c-.31.38-.63.66-.97.83-.33.17-.8.26-1.39.26-.63 0-1.15-.18-1.57-.55-.42-.37-.62-.94-.62-1.7 0-.75.26-1.31.79-1.66.53-.37 1.32-.57 2.38-.6l1.23-.04v-.31c0-.37-.1-.65-.3-.82-.19-.17-.46-.26-.8-.26-.35 0-.69.05-1.02.15-.33.1-.65.22-.98.37l-.64-1.31c.38-.2.8-.36 1.26-.47.47-.11.95-.17 1.46-.17zm.27 3.98c-.62.01-1.06.13-1.3.33-.24.21-.36.49-.36.82 0 .3.08.51.26.64.17.12.39.18.67.18.42 0 .77-.12 1.05-.36.29-.25.43-.6.43-1.05v-.59l-.75.03zm6.6-3.84v2.73h2.7v-2.73h1.94v7.1h-1.94v-2.93h-2.7V344h-1.94v-7.1h1.94zm11.32 0h2.13l-2.8 3.41 3.05 3.69h-2.2l-2.9-3.6v3.6h-1.93v-7.1h1.93v3.45l2.72-3.45zm9.59 3.54c0 1.18-.31 2.09-.94 2.73-.61.64-1.45.96-2.52.96-.66 0-1.25-.14-1.77-.43-.51-.29-.91-.7-1.2-1.25-.3-.55-.45-1.22-.45-2.01 0-1.18.31-2.09.93-2.72.61-.63 1.46-.95 2.53-.95.67 0 1.26.14 1.77.43s.91.7 1.21 1.25c.29.54.44 1.2.44 1.99zm-4.9 0c0 .7.11 1.23.34 1.6.23.35.61.53 1.13.53.51 0 .88-.18 1.1-.53.24-.37.35-.9.35-1.6 0-.7-.11-1.23-.35-1.58-.22-.35-.59-.53-1.11-.53-.52 0-.89.18-1.12.53-.23.35-.34.88-.34 1.58zm12.79-1.68c0 .38-.12.71-.36.98-.24.26-.59.44-1.05.52v.05c.49.06.88.23 1.18.5.3.28.45.64.45 1.07 0 .41-.1.77-.32 1.09-.21.32-.54.57-1 .76-.46.18-1.06.27-1.81.27H83.6v-7.1h3.38c.56 0 1.05.06 1.48.18.44.12.79.31 1.04.58.26.26.39.63.39 1.1zm-1.96.16c0-.44-.34-.65-1.03-.65h-1.36v1.4h1.14c.41 0 .72-.06.92-.17.22-.12.33-.31.33-.58zm.18 2.86c0-.28-.11-.48-.32-.6-.22-.13-.54-.2-.98-.2h-1.27v1.68h1.31c.36 0 .66-.06.9-.19.24-.14.36-.37.36-.69zm6.55 2.35c-1.05 0-1.87-.29-2.45-.87-.58-.59-.86-1.51-.86-2.77 0-.87.15-1.57.44-2.12.29-.55.7-.95 1.22-1.21.53-.26 1.14-.39 1.82-.39.49 0 .91.05 1.26.14.37.1.68.21.95.34l-.57 1.5c-.3-.12-.59-.22-.86-.3a2.64 2.64 0 00-.78-.12c-1 0-1.51.72-1.51 2.15 0 .71.13 1.23.39 1.57.27.34.65.51 1.12.51.41 0 .77-.06 1.08-.16.31-.11.62-.26.91-.45v1.65c-.29.19-.61.32-.94.4-.32.09-.72.13-1.22.13zm8.45-7.23h2.13l-2.81 3.41 3.06 3.69h-2.2l-2.9-3.6v3.6h-1.94v-7.1h1.94v3.45l2.72-3.45zm9.59 3.54c0 1.18-.31 2.09-.94 2.73-.61.64-1.45.96-2.52.96-.66 0-1.25-.14-1.77-.43-.51-.29-.91-.7-1.21-1.25-.29-.55-.44-1.22-.44-2.01 0-1.18.31-2.09.92-2.72.62-.63 1.46-.95 2.54-.95.67 0 1.26.14 1.77.43s.91.7 1.21 1.25c.29.54.44 1.2.44 1.99zm-4.9 0c0 .7.11 1.23.33 1.6.24.35.62.53 1.14.53.51 0 .88-.18 1.1-.53.23-.37.35-.9.35-1.6 0-.7-.12-1.23-.35-1.58-.22-.35-.6-.53-1.12-.53-.51 0-.88.18-1.12.53-.22.35-.33.88-.33 1.58zm13.3-6.59c-.05.45-.17.85-.38 1.19-.21.34-.53.61-.97.8-.45.19-1.04.28-1.79.28-.76 0-1.36-.09-1.79-.27-.42-.19-.73-.46-.91-.79-.18-.34-.29-.75-.32-1.21h1.72c.05.47.17.79.37.95.2.15.52.23.97.23.38 0 .68-.08.91-.25.25-.17.39-.48.43-.93h1.76zm-4.93 5.86c0 .15-.01.33-.03.55 0 .21-.02.43-.03.66-.01.22-.03.42-.04.6-.02.17-.03.29-.04.36l3.27-4.98h2.33v7.1h-1.87v-2.83c0-.24.01-.49.02-.77.02-.29.04-.55.06-.79.02-.26.04-.45.05-.58l-3.26 4.97h-2.33v-7.1h1.87v2.81zm15.24-2.81h2.13l-2.81 3.41 3.06 3.69h-2.2l-2.9-3.6v3.6h-1.94v-7.1h1.94v3.45l2.72-3.45zm6.3-.14c.96 0 1.68.21 2.19.62.51.41.76 1.04.76 1.89V344h-1.35l-.37-.96h-.06c-.3.38-.62.66-.96.83-.34.17-.8.26-1.39.26-.63 0-1.16-.18-1.57-.55-.42-.37-.63-.94-.63-1.7 0-.75.27-1.31.8-1.66.52-.37 1.32-.57 2.38-.6l1.23-.04v-.31c0-.37-.1-.65-.3-.82-.19-.17-.46-.26-.8-.26-.35 0-.69.05-1.02.15-.33.1-.66.22-.99.37l-.63-1.31c.38-.2.8-.36 1.26-.47.47-.11.95-.17 1.45-.17zm.28 3.98c-.63.01-1.06.13-1.3.33-.25.21-.37.49-.37.82 0 .3.09.51.26.64.18.12.4.18.68.18.41 0 .77-.12 1.05-.36.29-.25.43-.6.43-1.05v-.59l-.75.03zm8.61-3.97c.8 0 1.44.31 1.94.94.49.61.74 1.52.74 2.73 0 1.2-.26 2.12-.77 2.75-.51.63-1.17.94-1.96.94-.51 0-.92-.09-1.23-.27-.3-.19-.55-.41-.74-.64h-.1c.07.36.1.71.1 1.04v2.86h-1.93V336.9h1.57l.27.92h.09c.19-.28.45-.53.77-.74.32-.2.74-.31 1.25-.31zm-.63 1.55c-.5 0-.85.15-1.06.47-.2.31-.31.79-.33 1.43v.2c0 .69.1 1.22.3 1.59.21.36.58.55 1.12.55.44 0 .77-.19.98-.55.21-.37.32-.9.32-1.6 0-1.39-.44-2.09-1.33-2.09zm10.65.04h-2.32V344h-1.94v-5.64h-2.33v-1.46h6.59v1.46zm7.63 2.08c0 1.18-.31 2.09-.93 2.73-.62.64-1.46.96-2.52.96-.66 0-1.25-.14-1.77-.43-.51-.29-.92-.7-1.21-1.25-.3-.55-.44-1.22-.44-2.01 0-1.18.3-2.09.92-2.72.61-.63 1.46-.95 2.53-.95.67 0 1.26.14 1.77.43s.92.7 1.21 1.25c.3.54.44 1.2.44 1.99zm-4.9 0c0 .7.11 1.23.34 1.6.23.35.61.53 1.13.53.51 0 .88-.18 1.11-.53.23-.37.35-.9.35-1.6 0-.7-.12-1.23-.35-1.58-.23-.35-.6-.53-1.12-.53-.51 0-.89.18-1.12.53-.23.35-.34.88-.34 1.58zm13.3-6.59c-.04.45-.17.85-.37 1.19-.21.34-.54.61-.98.8-.44.19-1.03.28-1.78.28-.76 0-1.36-.09-1.79-.27-.43-.19-.73-.46-.91-.79-.19-.34-.29-.75-.33-1.21h1.73c.04.47.16.79.36.95.2.15.53.23.98.23.37 0 .67-.08.91-.25.24-.17.38-.48.43-.93h1.75zm-4.92 5.86c0 .15-.01.33-.03.55-.01.21-.02.43-.04.66-.01.22-.02.42-.04.6-.02.17-.03.29-.04.36l3.28-4.98h2.33v7.1h-1.88v-2.83c0-.24.01-.49.03-.77.02-.29.03-.55.05-.79.03-.26.05-.45.05-.58l-3.26 4.97h-2.33v-7.1h1.88v2.81zm-63.85-69.98l-2.37 6.27h-.94l-2.37-6.27h.87l1.97 5.41 1.97-5.41h.87zm1.71 0V276h-.81v-6.27h.81zm3.39 6.33c-.42 0-.79-.07-1.12-.21-.32-.15-.58-.36-.76-.62-.19-.26-.28-.56-.29-.9h.87c.03.29.15.54.36.74.22.2.53.3.94.3.39 0 .69-.1.92-.29.22-.2.34-.45.34-.75 0-.24-.07-.44-.2-.59-.13-.15-.3-.26-.49-.34-.2-.08-.47-.16-.81-.25-.41-.11-.74-.22-.99-.33-.25-.11-.46-.27-.64-.5-.18-.24-.26-.55-.26-.94 0-.34.08-.64.26-.91.17-.26.41-.46.73-.61.31-.14.68-.21 1.08-.21.59 0 1.07.14 1.44.44.38.29.6.68.64 1.17h-.9c-.03-.24-.15-.45-.37-.63-.23-.19-.52-.28-.89-.28-.34 0-.62.09-.83.27-.22.17-.33.42-.33.74 0 .22.07.41.19.55.13.15.29.26.48.34.19.07.46.15.8.25.41.11.75.23 1 .34.25.11.47.28.65.51.18.23.27.54.27.94 0 .31-.08.59-.25.86-.16.27-.4.49-.72.66-.31.17-.69.25-1.12.25zm7-1.46h-2.74l-.5 1.4h-.86l2.26-6.24h.95l2.26 6.24h-.87l-.5-1.4zm-.23-.66l-1.14-3.17-1.13 3.17h2.27zm8.24 28.9h-5.35v5.4h-1.56v-5.4h-5.33v-1.44h5.33V296h1.56v5.4h5.35v1.44z" fill="#fff"/><path d="M280.46 243.27h-3.61l-.6 1.73h-1.91l3.26-9.09h2.12l3.26 9.09h-1.92l-.6-1.73zm-.49-1.46l-1.32-3.79-1.31 3.79h2.63zm6.05-2.97c.24-.33.56-.6.96-.82.42-.23.89-.34 1.42-.34.62 0 1.17.15 1.67.46.5.3.89.73 1.18 1.3.29.55.44 1.2.44 1.93 0 .74-.15 1.39-.44 1.97-.29.56-.68 1-1.18 1.31-.5.31-1.05.47-1.67.47-.53 0-1-.11-1.4-.33-.4-.21-.73-.49-.98-.82v4.46h-1.82V237.8h1.82v1.04zm3.81 2.53c0-.43-.09-.8-.27-1.12-.17-.32-.41-.56-.7-.72-.29-.17-.6-.25-.94-.25-.33 0-.64.09-.94.26-.28.16-.52.41-.7.73-.17.32-.26.7-.26 1.13 0 .43.09.81.26 1.13a2 2 0 00.7.74 1.866 1.866 0 001.88-.01c.29-.18.53-.42.7-.74.18-.32.27-.71.27-1.15zm5-2.53c.24-.33.56-.6.97-.82.41-.23.88-.34 1.41-.34.62 0 1.17.15 1.67.46.5.3.89.73 1.18 1.3.29.55.44 1.2.44 1.93 0 .74-.15 1.39-.44 1.97-.29.56-.68 1-1.18 1.31-.5.31-1.05.47-1.67.47-.53 0-.99-.11-1.4-.33-.4-.21-.73-.49-.98-.82v4.46h-1.82V237.8h1.82v1.04zm3.81 2.53c0-.43-.09-.8-.27-1.12-.17-.32-.41-.56-.7-.72-.29-.17-.6-.25-.94-.25-.33 0-.64.09-.93.26-.29.16-.52.41-.71.73-.17.32-.26.7-.26 1.13 0 .43.09.81.26 1.13.19.32.42.57.71.74.29.17.6.25.93.25.34 0 .65-.09.94-.26.29-.18.53-.42.7-.74.18-.32.27-.71.27-1.15zm5-5.99V245h-1.82v-9.62h1.82zm8.5 5.86c0 .26-.02.5-.06.7h-5.26c.04.52.23.93.55 1.23.32.29.71.44 1.18.44.67 0 1.16-.29 1.44-.87h1.96c-.2.69-.6 1.26-1.19 1.71-.59.45-1.31.67-2.17.67-.7 0-1.32-.15-1.87-.46-.55-.31-.98-.75-1.29-1.31-.3-.56-.46-1.21-.46-1.95 0-.75.16-1.4.46-1.96.3-.57.73-1 1.27-1.3.55-.31 1.18-.46 1.89-.46.68 0 1.29.15 1.83.44.55.3.97.72 1.26 1.26.31.54.46 1.16.46 1.86zm-1.89-.52c-.01-.47-.18-.84-.51-1.12-.32-.28-.73-.42-1.2-.42-.45 0-.84.13-1.15.41-.3.27-.49.65-.56 1.13h3.42zm12.93-1.99c0 .49-.12.94-.35 1.37-.23.42-.59.77-1.08 1.03-.49.26-1.1.39-1.85.39h-1.52V245h-1.82v-9.07h3.34c.71 0 1.3.12 1.8.36.49.24.86.58 1.1 1 .25.43.38.91.38 1.44zm-3.35 1.32c.5 0 .87-.12 1.11-.34.25-.24.37-.56.37-.98 0-.88-.5-1.32-1.48-1.32h-1.45v2.64h1.45zm4.17 1.32c0-.73.15-1.37.43-1.93.3-.57.69-1 1.19-1.3.5-.31 1.06-.46 1.67-.46.54 0 1.01.11 1.41.33.4.21.73.49.97.81v-1.02h1.84v7.2h-1.84v-1.05c-.23.33-.56.62-.97.84-.41.22-.88.33-1.42.33-.61 0-1.16-.16-1.66-.47-.5-.31-.89-.75-1.19-1.31-.28-.58-.43-1.23-.43-1.97zm5.67.03c0-.44-.08-.82-.26-1.13-.17-.32-.41-.57-.7-.73-.29-.17-.61-.26-.95-.26-.34 0-.65.08-.93.25-.29.16-.52.4-.71.72-.17.32-.26.69-.26 1.12 0 .44.09.82.26 1.15.19.32.42.56.71.74.29.17.6.26.93.26.34 0 .66-.08.95-.25.29-.17.53-.42.7-.73.18-.32.26-.7.26-1.14zm10.5-3.6l-4.46 10.61h-1.93l1.56-3.59-2.89-7.02h2.04l1.86 5.03 1.89-5.03h1.93z" fill="#0175B6"/><path d="M320.28 298.84v3.47c0 1.84-.73 3.61-2.03 4.91a6.948 6.948 0 01-4.91 2.03h-4.62v-3.47c0-1.84.73-3.6 2.03-4.9a6.916 6.916 0 014.91-2.04h4.62z" fill="#fff"/><path d="M308.72 305.78v3.47h-4.63c-1.84 0-3.6-.73-4.9-2.03a6.948 6.948 0 01-2.03-4.91v-3.47h4.62c1.84 0 3.61.73 4.91 2.04 1.3 1.3 2.03 3.06 2.03 4.9zm0-10.4c5.11 0 9.25-4.15 9.25-9.26 0-5.1-4.14-9.24-9.25-9.24s-9.25 4.14-9.25 9.24c0 5.11 4.14 9.26 9.25 9.26zm20.81 27.74h20.81v5.79c0 .61-.24 1.2-.68 1.63-.43.43-1.02.68-1.63.68h-37c-.61 0-1.2-.25-1.63-.68-.44-.43-.68-1.02-.68-1.63v-6.94h18.81c.2.35.5.64.85.84.35.21.75.31 1.15.31zm1.16-25.43v-10.41h-5.78l10.4-10.4 10.41 10.4h-5.78v10.41h-9.25zm31.22 8.09h-34.69v-2.31c0-.61.24-1.2.68-1.63.43-.44 1.02-.68 1.63-.68h30.06c.62 0 1.2.24 1.64.68.43.43.67 1.02.68 1.63v2.31z" fill="#fff"/><path d="M356.7 319.66c.46 0 .9-.19 1.23-.51.32-.33.51-.77.51-1.23 0-.46-.19-.9-.51-1.22-.33-.33-.77-.51-1.23-.51h-4.62c-.46 0-.9.18-1.23.51-.32.32-.51.76-.51 1.22 0 .46.19.9.51 1.23.33.32.77.51 1.23.51h4.62zm-6.36 3.46h-20.81a2.308 2.308 0 01-2.31-2.31v-11.56h34.69v11.56c-.01.62-.25 1.2-.68 1.64-.44.43-1.02.67-1.64.67h-9.25zm0-56.65v4.62h-41.62v-4.62c0-.61.24-1.2.68-1.63.43-.44 1.02-.68 1.63-.68h37c.61 0 1.2.24 1.63.68.44.43.68 1.02.68 1.63z" fill="#fff"/><path d="M327.22 325.44h4.62v2.31h-4.62v-2.31z" fill="#0175B6"/><path d="M359.59 300h-8.09v-33.53c0-.92-.37-1.8-1.02-2.45a3.467 3.467 0 00-2.45-1.02h-37c-.92 0-1.8.37-2.45 1.02a3.51 3.51 0 00-1.02 2.45v9.32c-2.53.29-4.87 1.51-6.57 3.41-1.7 1.91-2.63 4.37-2.63 6.92 0 2.56.93 5.02 2.63 6.93 1.7 1.9 4.04 3.12 6.57 3.41v3.67a7.975 7.975 0 00-2.64-1.81 8.04 8.04 0 00-3.14-.63h-4.62c-.31 0-.6.12-.82.34-.22.21-.34.51-.34.81v3.47a8.1 8.1 0 002.37 5.72 8.144 8.144 0 005.72 2.38h3.47v18.5c.01.92.37 1.8 1.02 2.45a3.51 3.51 0 002.45 1.02h37c.92-.01 1.8-.37 2.45-1.02.65-.65 1.02-1.53 1.02-2.45v-4.63h8.09c.92 0 1.8-.37 2.45-1.02.65-.65 1.02-1.53 1.02-2.45v-17.34c0-.92-.37-1.8-1.02-2.45a3.467 3.467 0 00-2.45-1.02zm-52.03 8.09h-3.47c-.76 0-1.51-.15-2.21-.44-.7-.29-1.34-.71-1.87-1.25a5.771 5.771 0 01-1.7-4.09V300h3.47c1.53 0 3.01.61 4.09 1.69a5.816 5.816 0 011.69 4.09v2.31zm2.32-41.62c0-.31.12-.6.33-.82.22-.22.51-.34.82-.34h37c.31 0 .6.12.82.34.22.22.34.51.34.82v3.47h-39.31v-3.47zm0 5.78h39.31V300h-19.66c-.92 0-1.8.37-2.45 1.02a3.51 3.51 0 00-1.02 2.45v17.34h-16.18v-10.4h3.46c2.15-.01 4.21-.86 5.72-2.38a8.067 8.067 0 002.38-5.72v-3.47c0-.3-.12-.6-.34-.81a1.15 1.15 0 00-.82-.34h-4.62c-1.08 0-2.15.21-3.14.63-.99.42-1.89 1.03-2.64 1.81v-3.67c2.53-.29 4.87-1.51 6.57-3.41 1.69-1.91 2.63-4.37 2.63-6.93 0-2.55-.94-5.01-2.63-6.92-1.7-1.9-4.04-3.12-6.57-3.41v-3.54zm0 35.84v-2.31c0-1.53.6-3 1.69-4.09a5.781 5.781 0 014.09-1.69h3.46v2.31c0 .76-.14 1.51-.44 2.21a5.739 5.739 0 01-3.12 3.13c-.71.29-1.46.44-2.22.44h-3.46zm-9.26-21.97c0-1.6.48-3.16 1.37-4.49a8.073 8.073 0 013.63-2.98c1.48-.62 3.11-.78 4.68-.46 1.57.31 3.01 1.08 4.14 2.21a8.183 8.183 0 012.22 4.15 8.085 8.085 0 01-3.44 8.3 8.13 8.13 0 01-4.5 1.37c-2.15 0-4.2-.86-5.72-2.37a8.15 8.15 0 01-2.38-5.73zm48.57 42.79c0 .3-.12.6-.34.81-.22.22-.51.34-.82.34h-37c-.31 0-.6-.12-.82-.34a1.16 1.16 0 01-.33-.81v-5.79h17.08c.33.37.72.66 1.16.86.45.2.93.3 1.41.3h19.66v4.63zm11.56-8.1c0 .31-.12.6-.34.82-.22.22-.51.34-.82.34h-30.06c-.31 0-.6-.12-.82-.34-.21-.22-.33-.51-.33-.82v-10.4h32.37v10.4zm0-12.72h-32.37v-1.15h32.37v1.15zm0-3.47h-32.37v-1.15c0-.31.12-.6.33-.82.22-.22.51-.34.82-.34h30.06c.31 0 .6.12.82.34.22.22.34.51.34.82v1.15z" fill="#0175B6"/><path d="M309.88 283.81v-1.15h-2.32v2.31h3.47c.31 0 .6.12.82.34.22.21.34.51.34.81v4.63c0 .31-.12.6-.34.82-.22.21-.51.34-.82.34h-1.15v1.15h-2.32v-1.15h-1.15c-.31 0-.6-.13-.82-.34a1.15 1.15 0 01-.34-.82v-2.31h2.31v1.15h2.32v-2.31h-3.47c-.31 0-.6-.12-.82-.34-.22-.21-.34-.51-.34-.82v-4.62c0-.31.12-.6.34-.82.22-.21.51-.34.82-.34h1.15v-1.15h2.32v1.15h1.15c.31 0 .6.13.82.34.22.22.34.51.34.82v2.31h-2.31zm46.82 31.22h-4.62c-.77 0-1.5.31-2.05.85-.54.54-.84 1.28-.84 2.04 0 .77.3 1.5.84 2.05.55.54 1.28.84 2.05.84h4.62c.77 0 1.51-.3 2.05-.84.54-.55.84-1.28.84-2.05 0-.76-.3-1.5-.84-2.04s-1.28-.85-2.05-.85zm0 3.47h-4.62c-.16 0-.3-.06-.41-.17a.583.583 0 01.41-.99h4.62a.583.583 0 01.41.99c-.11.11-.25.17-.41.17zm-31.79-30.06h4.62v9.25h2.32v-10.41c0-.31-.13-.6-.34-.82-.22-.21-.51-.33-.82-.33h-2.99l7.61-7.62 7.62 7.62h-2.99c-.31 0-.6.12-.82.33-.22.22-.34.51-.34.82v10.41h2.32v-9.25h4.62c.23 0 .45-.07.64-.2.19-.12.34-.31.43-.52.09-.21.11-.44.06-.66-.04-.23-.15-.43-.31-.6l-10.41-10.4a1.15 1.15 0 00-1.63 0l-10.41 10.4c-.16.17-.27.37-.32.6a1.154 1.154 0 00.5 1.18c.19.13.41.2.64.2z" fill="#0175B6"/><path d="M397 476H33a5 5 0 00-5 5v136a5 5 0 005 5h364a5 5 0 005-5V481a5 5 0 00-5-5zm0 172H33a5 5 0 00-5 5v143a5 5 0 005 5h364a5 5 0 005-5V653a5 5 0 00-5-5z" fill="#E3EAF4"/><path clip-rule="evenodd" d="M108 498s-48.57 25.77-47.99 25.79v6.85h95.98v-6.85C156.57 523.77 108 498 108 498zm-20 42v36.63H70.72V540H68v-9h22.16v9H88zm29 0v36.63H99.72V540H97v-9h22.16v9H117zm29 0v36.63h-17.28V540H126v-9h22.16v9H146zm1.74 44.54v-7.82H68.26v7.82H64.8V594h86.4v-9.46h-3.46z" stroke="#0175B6" stroke-width="4" stroke-linecap="round" stroke-linejoin="round"/><path d="M81 505.5a1.5 1.5 0 100-3 1.5 1.5 0 000 3zm-20 53a1.5 1.5 0 100-3 1.5 1.5 0 000 3zm93-21a1.5 1.5 0 10-.001-3.001A1.5 1.5 0 00154 537.5zm-18-33.88l.2.61.11.34h1l-.51.38-.3.21.11.35.2.61-.52-.38-.29-.21-.29.21-.52.38.2-.61.11-.35-.3-.21-.51-.38h1l.11-.34.2-.61zm19 61l.2.61.11.34h1l-.51.38-.3.21.11.35.2.61-.52-.38-.29-.21-.29.21-.52.38.2-.61.11-.35-.3-.21-.51-.38h1l.11-.34.2-.61zm-48-77l.2.61.11.34h1l-.51.38-.3.21.11.35.2.61-.52-.38-.29-.21-.29.21-.52.38.2-.61.11-.35-.3-.21-.51-.38h1l.11-.34.2-.61zm-71 53l.2.61.11.34h1l-.51.38-.3.21.11.35.2.61-.52-.38-.29-.21-.29.21-.52.38.2-.61.11-.35-.3-.21-.51-.38h1l.11-.34.2-.61zm93 67l.2.61.11.34h1l-.51.38-.3.21.11.35.2.61-.52-.38-.29-.21-.29.21-.52.38.2-.61.11-.35-.3-.21-.51-.38h1l.11-.34.2-.61zm43-74l.2.61.11.34h1l-.51.38-.3.21.11.35.2.61-.52-.38-.29-.21-.29.21-.52.38.2-.61.11-.35-.3-.21-.51-.38h1l.11-.34.2-.61zM54 584.5a1.5 1.5 0 100-3 1.5 1.5 0 000 3zm109-20a1.5 1.5 0 10-.001-3.001A1.5 1.5 0 00163 564.5zm-59 38a1.5 1.5 0 10-.001-3.001A1.5 1.5 0 00104 602.5zm27-106a1.5 1.5 0 10-.001-3.001A1.5 1.5 0 00131 496.5zm-62-7.88l.2.61.11.34h1l-.51.38-.3.21.11.35.2.61-.52-.38-.29-.21-.29.21-.52.38.2-.61.11-.35-.3-.21-.51-.38h1l.11-.34.2-.61z" stroke="#0175B6"/><path d="M193.26 520v-10h6.31v1.75h-4.2v2.09h.84c.95 0 1.72.13 2.31.39.61.26 1.06.62 1.35 1.08.29.46.43.98.43 1.57 0 .99-.33 1.76-.99 2.31-.66.54-1.7.81-3.14.81h-2.91zm2.83-1.74c.64 0 1.15-.1 1.51-.3.37-.21.56-.57.56-1.08 0-.53-.2-.88-.6-1.05-.4-.17-.95-.25-1.64-.25h-.55v2.68h.72zm9.07-6.06c1.02 0 1.81.23 2.35.67.55.44.82 1.12.82 2.03v5.1h-1.45l-.41-1.04h-.05c-.33.41-.68.71-1.04.9-.36.19-.86.28-1.5.28-.68 0-1.24-.2-1.69-.59-.45-.4-.67-1.01-.67-1.83 0-.81.28-1.41.85-1.79.57-.4 1.42-.61 2.56-.65l1.33-.04v-.34c0-.4-.11-.69-.32-.88-.21-.18-.49-.28-.87-.28-.37 0-.74.06-1.09.17-.35.1-.71.23-1.06.39l-.69-1.41c.41-.22.86-.38 1.36-.51.5-.12 1.02-.18 1.57-.18zm.29 4.29c-.67.01-1.14.14-1.4.36-.26.22-.39.52-.39.88 0 .32.09.55.28.69.18.13.43.19.73.19.44 0 .82-.13 1.13-.39.31-.27.46-.65.46-1.13v-.63l-.81.03zm7.1-4.13v2.94h2.92v-2.94h2.08V520h-2.08v-3.15h-2.92V520h-2.08v-7.64h2.08zm12.2 0h2.3l-3.03 3.66 3.29 3.98h-2.36l-3.13-3.88V520h-2.08v-7.64h2.08v3.71l2.93-3.71zm10.33 3.8c0 1.27-.34 2.25-1.01 2.94-.66.69-1.57 1.04-2.72 1.04-.71 0-1.34-.15-1.9-.46-.55-.31-.99-.76-1.3-1.35-.32-.59-.48-1.32-.48-2.17 0-1.27.33-2.24 1-2.92.66-.68 1.57-1.02 2.73-1.02.71 0 1.35.15 1.9.46.55.31.98.75 1.3 1.34.32.58.48 1.29.48 2.14zm-5.28 0c0 .76.12 1.33.36 1.73.26.38.66.57 1.22.57.55 0 .95-.19 1.19-.57.25-.4.38-.97.38-1.73 0-.75-.13-1.32-.38-1.69-.24-.38-.64-.57-1.2-.57-.55 0-.95.19-1.21.57-.24.37-.36.94-.36 1.69zm13.78-1.8c0 .41-.13.76-.4 1.05-.25.29-.63.47-1.13.56v.05c.53.07.96.25 1.27.55.33.3.49.68.49 1.15 0 .44-.11.83-.35 1.17-.22.35-.58.62-1.07.82-.5.19-1.15.29-1.95.29h-3.64v-7.64h3.64c.6 0 1.13.06 1.6.19.47.12.85.33 1.12.62.28.29.42.68.42 1.19zm-2.12.17c0-.47-.37-.7-1.1-.7h-1.47v1.51h1.23c.44 0 .77-.06.99-.18.24-.13.35-.34.35-.63zm.2 3.08c0-.3-.12-.52-.35-.65-.23-.14-.58-.21-1.05-.21h-1.37v1.81h1.41c.39 0 .71-.07.97-.21.26-.15.39-.4.39-.74zm7.05 2.53c-1.13 0-2.02-.31-2.64-.94-.62-.63-.93-1.63-.93-2.98 0-.93.16-1.69.48-2.28.32-.59.76-1.02 1.32-1.3.57-.28 1.22-.42 1.96-.42.52 0 .97.05 1.35.15.4.1.74.22 1.03.36l-.62 1.61c-.33-.13-.63-.23-.92-.32-.28-.08-.56-.12-.84-.12-1.09 0-1.63.77-1.63 2.31 0 .76.14 1.33.42 1.69.29.36.69.55 1.21.55.43 0 .82-.06 1.16-.17.33-.12.66-.29.98-.49v1.78c-.32.2-.66.35-1.01.43-.35.09-.78.14-1.32.14zm9.1-7.78h2.3l-3.03 3.66 3.29 3.98h-2.36l-3.13-3.88V520h-2.08v-7.64h2.08v3.71l2.93-3.71zm5.67 3.02c0 .16-.01.35-.03.59-.01.23-.02.47-.04.71-.01.24-.02.46-.04.65-.02.18-.03.31-.04.39l3.53-5.36h2.5V520h-2.01v-3.05c0-.25 0-.53.02-.83.02-.31.04-.59.06-.85.03-.27.05-.48.06-.62l-3.52 5.35h-2.5v-7.64h2.01v3.02zm17.69-3.02V520h-1.94v-3.75c0-.38 0-.74.01-1.09.02-.36.04-.69.07-.98h-.04l-2.11 5.82h-1.57l-2.14-5.84h-.06c.04.31.06.64.07 1 .02.34.03.72.03 1.14v3.7h-1.95v-7.64h2.96l1.9 5.18 1.93-5.18h2.84zm5.69 7.64v-10h7.91v10h-2.12v-8.23h-3.68V520h-2.11zm13.41-7.78c1.06 0 1.89.3 2.51.91.61.59.92 1.45.92 2.56v1.01h-4.93c.02.58.19 1.05.52 1.38.34.34.8.51 1.39.51.49 0 .94-.05 1.34-.14.4-.11.82-.26 1.25-.47v1.61c-.38.19-.77.33-1.19.41-.41.09-.91.14-1.5.14-.77 0-1.44-.14-2.03-.42-.59-.29-1.05-.72-1.39-1.3-.33-.58-.5-1.31-.5-2.19 0-.89.15-1.63.45-2.22.31-.6.73-1.05 1.27-1.35.54-.29 1.17-.44 1.89-.44zm.02 1.48c-.41 0-.74.13-1.01.39-.26.26-.42.67-.46 1.22h2.92c-.01-.47-.13-.85-.36-1.15-.24-.31-.6-.46-1.09-.46zm9.36-1.48c.86 0 1.55.33 2.08 1 .54.67.8 1.65.8 2.94 0 1.3-.27 2.29-.82 2.97-.55.67-1.26 1.01-2.12 1.01-.55 0-.99-.1-1.31-.29-.33-.21-.6-.44-.8-.69h-.11c.07.39.11.77.11 1.12v3.08h-2.09v-11h1.7l.29.99h.1c.2-.31.48-.57.82-.8.35-.22.8-.33 1.35-.33zm-.67 1.66c-.54 0-.93.17-1.15.51-.22.33-.33.85-.35 1.54v.22c0 .74.11 1.31.32 1.71.22.39.63.59 1.2.59.48 0 .83-.2 1.05-.59.24-.4.35-.98.35-1.72 0-1.51-.47-2.26-1.42-2.26zm8.42-1.66c1.06 0 1.89.3 2.51.91.61.59.92 1.45.92 2.56v1.01h-4.93c.02.58.2 1.05.52 1.38.34.34.8.51 1.39.51.49 0 .94-.05 1.34-.14.4-.11.82-.26 1.25-.47v1.61c-.38.19-.77.33-1.19.41-.41.09-.91.14-1.5.14-.77 0-1.44-.14-2.03-.42-.59-.29-1.05-.72-1.39-1.3-.33-.58-.5-1.31-.5-2.19 0-.89.15-1.63.45-2.22.31-.6.73-1.05 1.27-1.35.54-.29 1.17-.44 1.89-.44zm.02 1.48c-.41 0-.74.13-1.01.39-.26.26-.42.67-.46 1.22h2.92c-.01-.47-.13-.85-.36-1.15-.24-.31-.6-.46-1.09-.46zm11.88.66c0 .41-.13.76-.39 1.05-.25.29-.63.47-1.14.56v.05c.54.07.96.25 1.28.55.32.3.49.68.49 1.15 0 .44-.12.83-.35 1.17-.23.35-.59.62-1.08.82-.5.19-1.14.29-1.95.29h-3.64v-7.64h3.64c.6 0 1.13.06 1.6.19.48.12.85.33 1.12.62.28.29.42.68.42 1.19zm-2.11.17c0-.47-.37-.7-1.11-.7h-1.47v1.51h1.23c.44 0 .77-.06 1-.18.23-.13.35-.34.35-.63zm.19 3.08c0-.3-.12-.52-.35-.65-.23-.14-.58-.21-1.05-.21h-1.37v1.81h1.41c.4 0 .72-.07.97-.21.26-.15.39-.4.39-.74zm10.89-1.45c0 1.27-.33 2.25-1.01 2.94-.66.69-1.56 1.04-2.71 1.04-.71 0-1.35-.15-1.91-.46-.55-.31-.98-.76-1.3-1.35-.32-.59-.47-1.32-.47-2.17 0-1.27.33-2.24.99-2.92.66-.68 1.57-1.02 2.73-1.02.72 0 1.35.15 1.9.46.55.31.99.75 1.31 1.34.31.58.47 1.29.47 2.14zm-5.28 0c0 .76.13 1.33.37 1.73.25.38.66.57 1.22.57.55 0 .94-.19 1.19-.57.25-.4.37-.97.37-1.73 0-.75-.12-1.32-.37-1.69-.25-.38-.65-.57-1.21-.57-.55 0-.95.19-1.2.57-.24.37-.37.94-.37 1.69zm13.88-3.8v6.11h1.12v4.27h-1.88V520h-5.13v2.74h-1.88v-4.27h.64c.34-.51.62-1.09.86-1.75.23-.66.42-1.36.56-2.11.14-.75.24-1.5.31-2.25h5.4zm-3.65 1.56c-.12.85-.27 1.66-.47 2.43-.19.75-.47 1.46-.82 2.12h2.85v-4.55h-1.56zm13.02 2.24c0 1.27-.34 2.25-1.01 2.94-.66.69-1.57 1.04-2.72 1.04-.71 0-1.34-.15-1.9-.46-.55-.31-.99-.76-1.3-1.35-.32-.59-.48-1.32-.48-2.17 0-1.27.33-2.24 1-2.92.66-.68 1.57-1.02 2.73-1.02.71 0 1.35.15 1.9.46.55.31.98.75 1.3 1.34.32.58.48 1.29.48 2.14zm-5.28 0c0 .76.12 1.33.36 1.73.26.38.66.57 1.22.57.55 0 .95-.19 1.19-.57.25-.4.38-.97.38-1.73 0-.75-.13-1.32-.38-1.69-.24-.38-.64-.57-1.2-.57-.55 0-.95.19-1.21.57-.24.37-.36.94-.36 1.69zm16.63-3.8V520h-1.94v-3.75c0-.38 0-.74.01-1.09.02-.36.04-.69.07-.98h-.04l-2.11 5.82h-1.57l-2.14-5.84h-.06c.04.31.06.64.07 1 .02.34.03.72.03 1.14v3.7h-1.95v-7.64h2.96l1.9 5.18 1.93-5.18h2.84zM60.38 682l-.73-2.38h-3.64l-.73 2.38H53l3.53-10.04h2.59L62.66 682h-2.28zm-1.96-6.48c-.05-.16-.11-.36-.18-.6-.08-.25-.15-.49-.23-.75l-.18-.65c-.05.18-.11.42-.2.7-.07.27-.15.53-.22.78-.07.24-.12.42-.15.52l-.72 2.32h2.61l-.73-2.32zm12.11.84c0 .41-.13.76-.39 1.05-.25.29-.63.47-1.13.56v.05c.53.07.95.25 1.27.55.33.3.49.68.49 1.15 0 .44-.11.83-.35 1.17-.22.35-.58.62-1.08.82-.49.19-1.14.29-1.94.29h-3.64v-7.64h3.64c.6 0 1.13.06 1.59.19.48.12.85.33 1.12.62.28.29.42.68.42 1.19zm-2.11.17c0-.47-.37-.7-1.11-.7h-1.47v1.51h1.24c.43 0 .77-.06.99-.18.23-.13.35-.34.35-.63zm.2 3.08c0-.3-.12-.52-.35-.65-.24-.14-.59-.21-1.05-.21h-1.38v1.81h1.42c.39 0 .71-.07.96-.21.27-.15.4-.4.4-.74zm10.27-3.69h-2.51V682H74.3v-6.08h-2.51v-1.56h7.1v1.56zm8.22 2.24c0 1.27-.34 2.25-1.01 2.94-.66.69-1.57 1.04-2.72 1.04-.71 0-1.34-.15-1.9-.46-.55-.31-.98-.76-1.3-1.35-.32-.59-.48-1.32-.48-2.17 0-1.27.33-2.24 1-2.92.66-.68 1.57-1.02 2.73-1.02.71 0 1.35.15 1.9.46.55.31.98.75 1.3 1.34.32.58.48 1.29.48 2.14zm-5.28 0c0 .76.12 1.33.36 1.73.26.38.66.57 1.22.57.55 0 .95-.19 1.19-.57.25-.4.38-.97.38-1.73 0-.75-.13-1.32-.38-1.69-.24-.38-.64-.57-1.2-.57-.55 0-.95.19-1.21.57-.24.37-.36.94-.36 1.69zm13.95-3.8V682h-2.09v-6.08h-2.77V682h-2.09v-7.64h6.95zm9.13 3.8c0 1.27-.34 2.25-1.01 2.94-.66.69-1.57 1.04-2.71 1.04-.71 0-1.35-.15-1.91-.46-.55-.31-.98-.76-1.3-1.35-.32-.59-.48-1.32-.48-2.17 0-1.27.33-2.24 1-2.92.66-.68 1.57-1.02 2.73-1.02.72 0 1.35.15 1.9.46.55.31.99.75 1.3 1.34.32.58.48 1.29.48 2.14zm-5.28 0c0 .76.12 1.33.37 1.73.25.38.65.57 1.21.57.55 0 .95-.19 1.19-.57.26-.4.38-.97.38-1.73 0-.75-.12-1.32-.38-1.69-.24-.38-.64-.57-1.2-.57-.55 0-.95.19-1.2.57-.25.37-.37.94-.37 1.69zm13.95-3.8V682h-2.09v-6.08h-2.77V682h-2.09v-7.64h6.95zm9.13 3.8c0 1.27-.34 2.25-1.01 2.94-.66.69-1.57 1.04-2.71 1.04-.71 0-1.35-.15-1.91-.46-.55-.31-.98-.76-1.3-1.35-.32-.59-.48-1.32-.48-2.17 0-1.27.34-2.24 1-2.92.66-.68 1.57-1.02 2.73-1.02.72 0 1.35.15 1.9.46.55.31.99.75 1.3 1.34.32.58.48 1.29.48 2.14zm-5.28 0c0 .76.12 1.33.37 1.73.25.38.65.57 1.21.57.55 0 .95-.19 1.19-.57.26-.4.38-.97.38-1.73 0-.75-.12-1.32-.38-1.69-.24-.38-.64-.57-1.2-.57-.55 0-.95.19-1.2.57-.25.37-.37.94-.37 1.69zm13.85 3.84h-2.09v-6.08h-1.91c-.13 1.5-.29 2.7-.49 3.62-.2.9-.48 1.56-.83 1.98-.35.41-.83.62-1.43.62-.48 0-.88-.07-1.19-.22v-1.67c.22.09.44.14.67.14.17 0 .33-.08.47-.25.14-.17.27-.47.39-.91.13-.44.25-1.05.35-1.84.1-.79.19-1.8.28-3.03h5.78V682zm4.26-7.64v2.94h2.92v-2.94h2.08V682h-2.08v-3.15h-2.92V682h-2.08v-7.64h2.08zm10.34-.14c1.05 0 1.89.3 2.5.91.62.59.93 1.45.93 2.56v1.01h-4.93c.02.58.19 1.05.52 1.38.33.34.79.51 1.38.51.5 0 .95-.05 1.35-.14.4-.11.81-.26 1.24-.47v1.61c-.37.19-.77.33-1.19.41-.41.09-.91.14-1.5.14-.76 0-1.44-.14-2.03-.42-.58-.29-1.05-.72-1.38-1.3-.34-.58-.51-1.31-.51-2.19 0-.89.15-1.63.45-2.22.31-.6.74-1.05 1.28-1.35.54-.29 1.17-.44 1.89-.44zm.01 1.48c-.4 0-.74.13-1.01.39-.26.26-.41.67-.46 1.22h2.93c-.01-.47-.13-.85-.37-1.15-.23-.31-.59-.46-1.09-.46zm7.19-1.34v2.94H156v-2.94h2.08V682H156v-3.15h-2.92V682H151v-7.64h2.08zm9.2 3.02c0 .16-.01.35-.02.59-.01.23-.03.47-.05.71-.01.24-.02.46-.04.65-.02.18-.03.31-.04.39l3.53-5.36h2.5V682h-2.01v-3.05c0-.25.01-.53.03-.83.01-.31.03-.59.05-.85.03-.27.05-.48.06-.62l-3.52 5.35h-2.5v-7.64h2.01v3.02zm11.21-3.16c1.06 0 1.89.3 2.51.91.62.59.92 1.45.92 2.56v1.01H172c.01.58.19 1.05.51 1.38.34.34.8.51 1.39.51.49 0 .94-.05 1.34-.14.41-.11.82-.26 1.25-.47v1.61c-.37.19-.77.33-1.19.41-.41.09-.91.14-1.5.14-.76 0-1.44-.14-2.03-.42a3.15 3.15 0 01-1.38-1.3c-.34-.58-.51-1.31-.51-2.19 0-.89.15-1.63.45-2.22.31-.6.73-1.05 1.27-1.35.55-.29 1.18-.44 1.89-.44zm.02 1.48c-.4 0-.74.13-1.01.39-.26.26-.42.67-.46 1.22h2.92c-.01-.47-.13-.85-.36-1.15-.23-.31-.6-.46-1.09-.46zM199.42 549h-1.3l-3.88-4.34V549h-1.08v-8.57h1.08v4.15l3.78-4.15h1.23l-3.72 4.17 3.89 4.4zm6.61-3.23c0 1.07-.27 1.89-.82 2.47-.53.59-1.26.88-2.18.88-.57 0-1.08-.13-1.52-.38-.44-.27-.79-.65-1.05-1.14-.25-.51-.38-1.12-.38-1.83 0-1.06.27-1.88.8-2.46.54-.57 1.27-.86 2.19-.86.58 0 1.09.13 1.53.39.45.26.8.64 1.05 1.13.25.49.38 1.09.38 1.8zm-4.86 0c0 .76.15 1.37.44 1.81.31.44.79.66 1.44.66.65 0 1.13-.22 1.43-.66.31-.44.46-1.05.46-1.81s-.15-1.35-.46-1.79c-.3-.43-.78-.64-1.44-.64-.65 0-1.13.21-1.43.64-.29.44-.44 1.03-.44 1.79zm13.43-3.2V549h-.94v-4.1c0-.17 0-.35.01-.53.01-.19.03-.37.05-.54h-.04l-2.1 5.17h-.89l-2.04-5.17h-.03c.02.36.03.73.03 1.1V549h-.95v-6.43h1.41l2.03 5.17 2.06-5.17h1.4zm3.05 3.92c0 .1 0 .24-.01.43-.01.2-.02.39-.04.58 0 .19-.01.34-.02.46l3.44-5.39h1.3V549h-.98v-4.3c0-.2.01-.41.02-.61.01-.21.02-.36.02-.47l-3.42 5.38h-1.3v-6.43h.99v3.92zm9.3 2.63c-.57 0-1.08-.12-1.53-.35-.44-.23-.78-.59-1.04-1.08-.25-.49-.37-1.11-.37-1.87 0-.79.13-1.44.39-1.93.27-.5.62-.86 1.07-1.09.46-.24.97-.35 1.55-.35.33 0 .64.03.95.11.3.06.55.14.74.24l-.32.87c-.19-.07-.42-.14-.67-.2-.26-.07-.5-.1-.72-.1-1.27 0-1.9.81-1.9 2.44 0 .77.15 1.37.46 1.79.31.4.77.61 1.38.61.35 0 .66-.04.92-.11.27-.07.52-.16.74-.26v.93c-.21.11-.45.2-.72.25-.25.07-.56.1-.93.1zm5.76 0c-.56 0-1.07-.12-1.52-.35-.44-.23-.79-.59-1.04-1.08-.25-.49-.38-1.11-.38-1.87 0-.79.14-1.44.4-1.93.26-.5.62-.86 1.07-1.09.45-.24.97-.35 1.55-.35.32 0 .64.03.94.11.31.06.56.14.75.24l-.33.87c-.19-.07-.41-.14-.67-.2-.25-.07-.49-.1-.72-.1-1.26 0-1.89.81-1.89 2.44 0 .77.15 1.37.45 1.79.31.4.77.61 1.38.61.35 0 .66-.04.93-.11s.52-.16.74-.26v.93c-.22.11-.46.2-.72.25-.26.07-.57.1-.94.1zm4.18-2.63c0 .1 0 .24-.01.43l-.03.58c-.01.19-.02.34-.03.46l3.45-5.39h1.29V549h-.98v-4.3c.01-.2.01-.41.02-.61.01-.21.02-.36.03-.47l-3.42 5.38h-1.31v-6.43h.99v3.92zm7.12 2.51h-1.23l1.84-2.7c-.25-.06-.49-.16-.72-.3-.23-.14-.42-.34-.57-.59-.14-.25-.21-.57-.21-.95 0-.61.21-1.08.62-1.4.42-.33.97-.49 1.66-.49h2.88V549h-1.06v-2.56h-1.56l-1.65 2.56zm.13-4.52c0 .36.13.64.41.82.28.18.66.27 1.16.27h1.51v-2.13h-1.71c-.49 0-.84.1-1.06.29-.21.19-.31.44-.31.75zm6.42 4.59c-.2 0-.38-.07-.52-.21a.71.71 0 01-.22-.53c0-.21.07-.39.22-.53.14-.14.32-.22.52-.22s.37.08.51.22.21.32.21.53c0 .21-.07.38-.21.53-.14.14-.31.21-.51.21zm0-5.13c-.2 0-.38-.08-.52-.22a.695.695 0 01-.22-.53c0-.21.07-.38.22-.53.14-.14.32-.21.52-.21s.37.07.51.21c.14.15.21.32.21.53 0 .21-.07.39-.21.53-.14.14-.31.22-.51.22zm8.1-3.51c1.07 0 1.88.16 2.42.48.55.31.83.86.83 1.65 0 .5-.14.92-.42 1.26-.28.32-.68.54-1.21.63v.06c.36.06.68.16.97.31.3.16.53.37.7.65.16.28.25.65.25 1.09 0 .78-.27 1.38-.81 1.8-.52.43-1.25.64-2.17.64h-3.01v-8.57h2.45zm.21 3.65c.74 0 1.24-.12 1.52-.35.27-.24.4-.59.4-1.05 0-.48-.16-.81-.5-1.01-.33-.21-.86-.31-1.58-.31h-1.42v2.72h1.58zm-1.58.9v3.11h1.73c.76 0 1.29-.15 1.58-.45.3-.29.45-.68.45-1.16 0-.45-.16-.81-.47-1.08-.31-.28-.85-.42-1.65-.42h-1.64zm9.02-2.52c.78 0 1.36.17 1.74.52.37.34.56.89.56 1.64V549h-.77l-.2-.91h-.05c-.28.35-.57.61-.89.78-.3.17-.72.25-1.27.25-.58 0-1.07-.15-1.45-.46-.38-.31-.58-.79-.58-1.45 0-.64.26-1.13.76-1.47.5-.36 1.28-.55 2.33-.58l1.09-.04v-.38c0-.54-.12-.91-.35-1.12-.23-.2-.56-.31-.98-.31-.34 0-.66.05-.96.16-.31.09-.59.21-.85.33l-.33-.79c.28-.15.61-.28 1-.38.38-.11.78-.17 1.2-.17zm.31 3.43c-.8.03-1.36.16-1.67.39-.3.22-.45.54-.45.94 0 .36.1.63.32.8.22.16.51.25.85.25.55 0 1-.15 1.36-.45.36-.3.54-.76.54-1.39v-.57l-.95.03zm12.7-3.32V549h-8.72v-6.43h1.05v5.54h2.78v-5.54h1.05v5.54h2.79v-5.54h1.05zm4.54-.12c.56 0 1.03.12 1.42.36.4.24.7.58.91 1.02.22.43.33.94.33 1.52v.64h-4.41c.02.73.2 1.28.55 1.67.36.37.86.56 1.5.56.41 0 .77-.04 1.08-.11.32-.08.65-.19.99-.33v.92c-.33.14-.65.25-.97.31-.32.07-.7.11-1.14.11-.61 0-1.15-.12-1.62-.37-.47-.25-.83-.62-1.1-1.11-.25-.49-.38-1.1-.38-1.81 0-.7.12-1.31.35-1.81.24-.5.57-.89.99-1.16.44-.28.94-.41 1.5-.41zm-.01.86c-.5 0-.9.17-1.2.49-.29.32-.46.77-.51 1.35h3.27c-.01-.55-.13-.99-.38-1.32-.25-.35-.64-.52-1.18-.52zm8.23-.74v.89h-2.87V549h-1.06v-6.43h3.93zm6.74 3.2c0 1.07-.27 1.89-.82 2.47-.53.59-1.26.88-2.18.88-.57 0-1.08-.13-1.52-.38-.44-.27-.79-.65-1.05-1.14-.25-.51-.38-1.12-.38-1.83 0-1.06.27-1.88.8-2.46.54-.57 1.27-.86 2.19-.86.58 0 1.09.13 1.53.39.45.26.8.64 1.05 1.13.25.49.38 1.09.38 1.8zm-4.86 0c0 .76.15 1.37.44 1.81.31.44.79.66 1.44.66.65 0 1.13-.22 1.43-.66.31-.44.46-1.05.46-1.81s-.15-1.35-.46-1.79c-.3-.43-.78-.64-1.44-.64-.65 0-1.13.21-1.43.64-.29.44-.44 1.03-.44 1.79zm9.88 3.23v-8.57h5.08v.95h-4v2.68h1.27c.85 0 1.52.1 1.99.32.47.21.8.5.98.86.19.36.28.78.28 1.25 0 .79-.24 1.4-.71 1.85-.47.44-1.27.66-2.39.66h-2.5zm2.4-.92c.76 0 1.3-.13 1.62-.39.31-.26.46-.66.46-1.2 0-.55-.17-.94-.51-1.16-.35-.23-.93-.34-1.75-.34h-1.14v3.09h1.32zm7.27-5.62c.78 0 1.36.17 1.74.52.38.34.56.89.56 1.64V549h-.76l-.21-.91h-.05c-.28.35-.57.61-.88.78-.31.17-.73.25-1.28.25-.58 0-1.06-.15-1.45-.46-.38-.31-.57-.79-.57-1.45 0-.64.25-1.13.75-1.47.51-.36 1.28-.55 2.33-.58l1.09-.04v-.38c0-.54-.11-.91-.35-1.12-.23-.2-.56-.31-.98-.31-.34 0-.66.05-.96.16-.3.09-.59.21-.85.33l-.33-.79c.28-.15.62-.28 1-.38.38-.11.78-.17 1.2-.17zm.31 3.43c-.8.03-1.35.16-1.67.39-.3.22-.45.54-.45.94 0 .36.11.63.32.8.23.16.51.25.85.25.55 0 1-.15 1.36-.45.36-.3.54-.76.54-1.39v-.57l-.95.03zm5.04-3.32v2.67h3.49v-2.67h1.06V549h-1.06v-2.87h-3.49V549h-1.06v-6.43h1.06zm10.39 0h1.15l-2.75 3.09 2.98 3.34h-1.23l-2.9-3.26V549h-1.06v-6.43h1.06v3.12l2.75-3.12zm4.98-.11c.78 0 1.36.17 1.74.52.38.34.56.89.56 1.64V549h-.76l-.21-.91h-.05c-.28.35-.57.61-.88.78-.31.17-.73.25-1.28.25-.58 0-1.06-.15-1.45-.46-.38-.31-.57-.79-.57-1.45 0-.64.25-1.13.75-1.47.51-.36 1.28-.55 2.33-.58l1.09-.04v-.38c0-.54-.11-.91-.35-1.12-.23-.2-.56-.31-.98-.31-.34 0-.66.05-.96.16-.3.09-.59.21-.85.33l-.33-.79c.28-.15.62-.28 1-.38.38-.11.78-.17 1.2-.17zm.31 3.43c-.8.03-1.35.16-1.67.39-.3.22-.45.54-.45.94 0 .36.11.63.32.8.23.16.51.25.85.25.55 0 1-.15 1.36-.45.36-.3.54-.76.54-1.39v-.57l-.95.03zm-135.79 15c0 .63-.2 1.13-.6 1.51-.4.36-.93.59-1.6.7v.05c.78.1 1.37.35 1.78.73.41.38.61.88.61 1.49 0 .82-.31 1.48-.93 1.99-.63.51-1.56.77-2.81.77-.5 0-.99-.04-1.44-.12-.46-.07-.88-.2-1.27-.39v-1.06c.41.19.85.34 1.33.45.49.11.94.16 1.37.16.83 0 1.46-.16 1.88-.47.43-.31.65-.75.65-1.33 0-.59-.25-1.01-.75-1.28-.51-.27-1.21-.41-2.11-.41h-1.33v-.97h1.27c.91 0 1.6-.15 2.05-.46.46-.31.69-.72.69-1.24 0-.47-.18-.83-.52-1.08-.35-.25-.8-.38-1.35-.38-.58 0-1.07.07-1.46.22-.38.15-.75.34-1.12.57l-.56-.79c.37-.27.81-.49 1.34-.68.54-.19 1.14-.28 1.81-.28 1 0 1.77.21 2.29.65.52.43.78.98.78 1.65zm4.64.02c.85 0 1.47.19 1.88.56.41.38.61.97.61 1.78V568h-.83l-.22-.99h-.05c-.31.38-.63.66-.96.85-.33.18-.79.27-1.38.27-.64 0-1.16-.16-1.58-.49-.41-.34-.62-.87-.62-1.58 0-.69.27-1.22.82-1.6.55-.38 1.39-.59 2.52-.62l1.18-.04v-.42c0-.58-.12-.98-.37-1.2-.25-.23-.61-.34-1.07-.34-.36 0-.71.05-1.04.17-.33.1-.64.22-.92.36l-.35-.86c.3-.16.66-.3 1.08-.41.41-.12.85-.19 1.3-.19zm.33 3.72c-.86.04-1.46.18-1.8.42-.33.24-.5.58-.5 1.03 0 .39.12.67.35.85.25.19.55.28.93.28.59 0 1.08-.16 1.47-.48.39-.33.58-.84.58-1.51v-.63l-1.03.04zm5.32-1.06c0 .79.44 1.19 1.33 1.19.44 0 .83-.06 1.19-.19.35-.14.72-.32 1.09-.55v-2.99h1.14V568h-1.14v-3.11c-.39.25-.78.45-1.16.6-.37.14-.82.21-1.35.21-.71 0-1.26-.19-1.66-.56-.39-.37-.59-.87-.59-1.5v-2.61h1.15v2.54zm8.05 1.71c0 .11-.01.26-.02.47-.01.21-.02.42-.04.63 0 .2-.01.37-.02.49l3.73-5.84h1.4V568h-1.06v-4.65c.01-.23.01-.45.02-.67.01-.22.02-.39.03-.5l-3.71 5.82h-1.41v-6.97h1.08v4.25zm10.07 2.85c-.62 0-1.17-.13-1.66-.38-.47-.25-.85-.64-1.13-1.17-.26-.53-.4-1.2-.4-2.03 0-.85.14-1.55.43-2.09.29-.54.67-.93 1.16-1.18.49-.25 1.05-.38 1.67-.38.36 0 .7.04 1.03.12.33.07.6.15.81.26l-.35.95c-.21-.08-.45-.15-.73-.22a3.25 3.25 0 00-.78-.11c-1.37 0-2.06.88-2.06 2.64 0 .84.17 1.49.5 1.94.34.44.83.66 1.49.66.38 0 .72-.04 1-.12.3-.07.57-.17.81-.28v1.01c-.23.12-.49.22-.78.28-.28.07-.62.1-1.01.1zm8.75-.13h-1.16v-6.02h-2.05c-.11 1.47-.27 2.65-.47 3.55-.2.89-.46 1.54-.79 1.95-.33.41-.75.61-1.25.61-.11 0-.22-.01-.34-.02a.893.893 0 01-.26-.07v-.86c.05.02.11.03.17.04.06.01.12.01.18.01.47 0 .84-.49 1.12-1.49.29-1 .5-2.55.65-4.67h4.2V568zm4.9-7.1c.6 0 1.11.13 1.54.39.43.26.76.63.99 1.11.23.46.35 1.02.35 1.65v.69h-4.77c.01.79.21 1.39.59 1.8.39.41.94.61 1.63.61.44 0 .83-.03 1.17-.11.35-.09.7-.21 1.06-.37v1c-.35.16-.7.27-1.05.34-.35.08-.76.12-1.23.12-.66 0-1.25-.13-1.76-.4-.5-.27-.9-.67-1.18-1.2-.28-.54-.42-1.19-.42-1.96 0-.76.13-1.42.38-1.97.26-.54.62-.96 1.08-1.26.47-.29 1.01-.44 1.62-.44zm-.01.94c-.55 0-.98.18-1.3.53-.31.35-.5.83-.56 1.46h3.55c-.01-.59-.15-1.07-.42-1.43-.26-.38-.69-.56-1.27-.56zm5.8-.81v2.9h3.79v-2.9h1.14V568h-1.14v-3.11h-3.79V568h-1.14v-6.97h1.14zm8.22 4.25c0 .11-.01.26-.02.47 0 .21-.02.42-.04.63 0 .2-.01.37-.02.49l3.73-5.84h1.4V568h-1.06v-4.65c.01-.23.02-.45.02-.67.01-.22.02-.39.03-.5l-3.71 5.82h-1.41v-6.97h1.08v4.25zm9.96-4.38c.6 0 1.11.13 1.54.39.43.26.76.63.98 1.11.24.46.36 1.02.36 1.65v.69h-4.78c.02.79.22 1.39.6 1.8.39.41.93.61 1.63.61.44 0 .83-.03 1.17-.11.34-.09.7-.21 1.06-.37v1c-.35.16-.7.27-1.05.34-.35.08-.76.12-1.23.12-.66 0-1.25-.13-1.76-.4-.5-.27-.9-.67-1.18-1.2-.28-.54-.42-1.19-.42-1.96 0-.76.13-1.42.38-1.97.26-.54.62-.96 1.08-1.26.47-.29 1.01-.44 1.62-.44zm-.01.94c-.55 0-.98.18-1.3.53-.31.35-.5.83-.56 1.46h3.55c-.01-.59-.15-1.07-.42-1.43-.27-.38-.69-.56-1.27-.56zm4.93 6.24c-.22 0-.41-.08-.57-.24a.74.74 0 01-.23-.57c0-.22.07-.41.23-.57a.77.77 0 01.57-.23c.22 0 .4.07.55.23.15.16.23.35.23.57 0 .23-.08.42-.23.57a.72.72 0 01-.55.24zm0-5.57a.77.77 0 01-.57-.23.77.77 0 01-.23-.57c0-.23.07-.42.23-.57.16-.16.35-.24.57-.24.22 0 .4.08.55.24.15.15.23.34.23.57 0 .22-.08.41-.23.57-.15.16-.33.23-.55.23zm5.35-2.83v-1.08h2.45v9.4h-1.2v-8.32h-1.25zm10.86-.96c1.21 0 2.09.24 2.65.71.55.48.83 1.15.83 2.02 0 .51-.12.99-.35 1.44-.23.44-.61.8-1.16 1.08-.54.28-1.27.42-2.2.42h-1.06V568h-1.17v-9.28h2.46zm-.11 1h-1.18v3.66h.93c.89 0 1.55-.14 1.98-.42.43-.29.65-.78.65-1.46 0-.6-.19-1.04-.57-1.34-.38-.29-.99-.44-1.81-.44zm8 1.19c.85 0 1.48.19 1.89.56.4.38.61.97.61 1.78V568h-.83l-.22-.99h-.06c-.3.38-.62.66-.96.85-.33.18-.79.27-1.38.27-.63 0-1.15-.16-1.57-.49-.42-.34-.62-.87-.62-1.58 0-.69.27-1.22.82-1.6.54-.38 1.38-.59 2.52-.62l1.18-.04v-.42c0-.58-.13-.98-.38-1.2-.25-.23-.6-.34-1.06-.34-.37 0-.71.05-1.04.17-.33.1-.64.22-.93.36l-.35-.86c.31-.16.67-.3 1.08-.41.42-.12.85-.19 1.3-.19zm.34 3.72c-.87.04-1.47.18-1.81.42-.33.24-.49.58-.49 1.03 0 .39.12.67.35.85.24.19.55.28.92.28.59 0 1.08-.16 1.47-.48.39-.33.59-.84.59-1.51v-.63l-1.03.04zm3.95-.82c0-1.52.23-2.71.69-3.56.46-.86 1.2-1.39 2.22-1.61.56-.12 1.11-.23 1.65-.33.54-.09 1.04-.18 1.51-.26l.19 1.01c-.3.04-.64.1-1.02.16-.39.07-.76.13-1.14.2-.37.06-.69.12-.96.18-.56.12-1.01.42-1.34.89-.33.46-.51 1.17-.56 2.15h.08c.12-.16.29-.33.5-.5.21-.18.47-.32.76-.45.31-.12.65-.18 1.03-.18.9 0 1.58.29 2.04.87.46.58.69 1.34.69 2.27 0 .77-.13 1.41-.4 1.93s-.64.91-1.12 1.17c-.48.25-1.03.38-1.66.38-.97 0-1.73-.37-2.31-1.11-.57-.73-.85-1.8-.85-3.21zm3.25 3.37c.56 0 1.02-.18 1.36-.55.35-.36.52-.98.52-1.87 0-.71-.13-1.27-.4-1.67-.26-.42-.69-.63-1.3-.63-.38 0-.73.09-1.04.26-.31.17-.57.36-.78.57-.21.22-.36.4-.44.55 0 .42.03.84.09 1.23.06.4.16.76.31 1.08.16.32.37.57.64.76.27.18.62.27 1.04.27zm10.95-2.68c0 1.16-.29 2.05-.88 2.68-.58.63-1.37.95-2.37.95-.61 0-1.16-.14-1.65-.42-.48-.28-.85-.69-1.13-1.23-.28-.55-.42-1.21-.42-1.98 0-1.15.29-2.04.87-2.66.58-.63 1.37-.94 2.37-.94.63 0 1.19.14 1.66.43.49.28.87.69 1.13 1.22.28.53.42 1.18.42 1.95zm-5.26 0c0 .83.16 1.48.48 1.97.33.47.85.71 1.56.71.7 0 1.21-.24 1.54-.71.33-.49.5-1.14.5-1.97 0-.82-.17-1.47-.5-1.93-.33-.47-.85-.71-1.56-.71-.71 0-1.22.24-1.54.71-.32.46-.48 1.11-.48 1.93zm7.95-.93c0 .79.44 1.19 1.34 1.19.43 0 .82-.06 1.18-.19.36-.14.72-.32 1.09-.55v-2.99h1.15V568h-1.15v-3.11c-.39.25-.77.45-1.15.6-.38.14-.83.21-1.36.21-.71 0-1.26-.19-1.66-.56-.39-.37-.59-.87-.59-1.5v-2.61h1.15v2.54zm8.05 1.71c0 .11-.01.26-.01.47-.01.21-.03.42-.04.63-.01.2-.02.37-.03.49l3.73-5.84h1.41V568h-1.07v-4.65l.03-.67c0-.22.01-.39.02-.5l-3.7 5.82h-1.42v-6.97h1.08v4.25zm12.92-7.13c-.07.65-.29 1.14-.67 1.48-.37.33-.97.49-1.79.49-.85 0-1.45-.16-1.81-.49-.35-.33-.54-.83-.58-1.48h1.06c.05.46.17.78.37.94.2.16.53.24.98.24.4 0 .71-.08.94-.25.23-.17.37-.48.42-.93h1.08zm-4.57 7.13c0 .11 0 .26-.01.47-.01.21-.02.42-.04.63-.01.2-.02.37-.03.49l3.74-5.84h1.4V568h-1.07v-4.65l.03-.67c.01-.22.02-.39.03-.5l-3.71 5.82h-1.42v-6.97h1.08v4.25zm15.92-4.25v6.01h1.01v3.38h-1.1V568h-4.85v2.42h-1.1v-3.38h.56c.6-.83 1.05-1.76 1.34-2.81.31-1.06.46-2.12.47-3.2h3.67zm-2.66.9c-.03.59-.12 1.2-.27 1.83-.15.63-.34 1.22-.57 1.8-.23.57-.49 1.06-.79 1.48h3.18v-5.11h-1.55zm7.73-1.03c.6 0 1.11.13 1.53.39.43.26.76.63.99 1.11.23.46.35 1.02.35 1.65v.69h-4.77c.02.79.22 1.39.6 1.8.39.41.93.61 1.62.61.44 0 .83-.03 1.17-.11.35-.09.7-.21 1.07-.37v1c-.36.16-.71.27-1.05.34-.35.08-.76.12-1.24.12-.66 0-1.24-.13-1.75-.4s-.9-.67-1.19-1.2c-.28-.54-.41-1.19-.41-1.96 0-.76.12-1.42.37-1.97.26-.54.62-.96 1.08-1.26.47-.29 1.01-.44 1.63-.44zm-.02.94c-.54 0-.98.18-1.3.53-.31.35-.49.83-.55 1.46h3.54c0-.59-.14-1.07-.41-1.43-.27-.38-.7-.56-1.28-.56zm5.81-.81v2.9h3.78v-2.9h1.15V568h-1.15v-3.11h-3.78V568h-1.15v-6.97h1.15zm10.34 2.86c1.81 0 2.72.66 2.72 1.98 0 .65-.22 1.17-.66 1.56-.45.38-1.15.57-2.11.57h-3.16v-6.97h1.15v2.86h2.06zm1.58 2.04c0-.42-.16-.71-.46-.86-.29-.15-.71-.23-1.25-.23h-1.93v2.24h1.96c.48 0 .88-.09 1.19-.26.33-.18.49-.47.49-.89zM199.94 586h-1.17v-8.26h-2.93c-.08.65-.17 1.32-.26 2.03-.1.7-.2 1.38-.29 2.02-.1.64-.19 1.19-.29 1.64-.11.58-.25 1.07-.41 1.48-.17.41-.39.71-.67.92-.26.21-.62.31-1.06.31-.15 0-.3-.01-.46-.05-.14-.02-.27-.06-.39-.1v-.98c.1.05.21.08.33.12.12.02.25.04.39.04.26 0 .46-.11.61-.31.16-.22.28-.49.36-.8.09-.32.16-.63.22-.95.07-.33.16-.81.25-1.44.11-.64.21-1.39.33-2.23.12-.85.24-1.76.36-2.72h5.08V586zm3.45-2.72c0 .11-.01.26-.01.47-.01.21-.03.42-.04.63-.01.2-.02.37-.03.49l3.73-5.84h1.41V586h-1.07v-4.65l.03-.67c0-.22.01-.39.02-.5l-3.7 5.82h-1.42v-6.97h1.08v4.25zm14.75-4.25V586h-1.03v-4.45c0-.18 0-.37.01-.57l.06-.58h-.04l-2.28 5.6h-.96l-2.21-5.6h-.04c.03.39.04.79.04 1.19V586h-1.03v-6.97h1.52l2.2 5.6 2.24-5.6h1.52zm3.3 4.25c0 .11 0 .26-.01.47-.01.21-.02.42-.04.63-.01.2-.02.37-.03.49l3.73-5.84h1.41V586h-1.07v-4.65l.03-.67c.01-.22.02-.39.02-.5l-3.7 5.82h-1.42v-6.97h1.08v4.25zm12.09-3.29h-2.28V586h-1.13v-6.01h-2.25v-.96h5.66v.96zm1.64 6.09c-.22 0-.42-.08-.57-.24a.748.748 0 01-.24-.57c0-.22.08-.41.24-.57.15-.16.35-.23.57-.23.22 0 .4.07.55.23.15.16.23.35.23.57 0 .23-.08.42-.23.57a.72.72 0 01-.55.24zm0-5.57c-.22 0-.42-.07-.57-.23a.779.779 0 01-.24-.57c0-.23.08-.42.24-.57.15-.16.35-.24.57-.24.22 0 .4.08.55.24.15.15.23.34.23.57 0 .22-.08.41-.23.57-.15.16-.33.23-.55.23zm13.22 5.49h-1.17v-4.33h-4.76V586h-1.17v-9.28h1.17v3.92h4.76v-3.92h1.17V586zm5.07-7.1c.6 0 1.11.13 1.53.39.44.26.76.63.99 1.11.23.46.35 1.02.35 1.65v.69h-4.77c.02.79.22 1.39.6 1.8.39.41.93.61 1.62.61.45 0 .84-.03 1.17-.11.35-.09.71-.21 1.07-.37v1c-.36.16-.71.27-1.05.34-.35.08-.76.12-1.24.12-.66 0-1.24-.13-1.75-.4s-.9-.67-1.19-1.2c-.27-.54-.41-1.19-.41-1.96 0-.76.12-1.42.37-1.97.26-.54.62-.96 1.08-1.26.47-.29 1.01-.44 1.63-.44zm-.01.94c-.55 0-.98.18-1.3.53-.32.35-.5.83-.56 1.46h3.55c-.01-.59-.15-1.07-.42-1.43-.27-.38-.69-.56-1.27-.56zm9.47.15h-2.28V586h-1.13v-6.01h-2.25v-.96h5.66v.96z" fill="#0175B6"/><path d="M181 711H57a4 4 0 00-4 4v63a4 4 0 004 4h124a4 4 0 004-4v-63a4 4 0 00-4-4zm158 0H215a4 4 0 00-4 4v63a4 4 0 004 4h124a4 4 0 004-4v-63a4 4 0 00-4-4z" fill="#F04343"/><path d="M99.33 737.65l-.33-1.69h-3.78l-.6 1.68-3.02.01c1.44-3.46 2.88-6.92 4.33-10.38.24-.59.68-.89 1.32-.88h2.41l2.34 11.26h-2.67zm-3.26-4h2.43l-.9-4.23-1.53 4.23zm-19.48-7.26h3.04l-4.7 11.26h-3.08c-.77-2.97-1.53-5.95-2.29-8.93-.15-.6-.44-1.01-1.02-1.21-.5-.17-1.35-.44-2.54-.81v-.31h4.86c.84 0 1.33.41 1.48 1.24.16.84.56 2.96 1.2 6.38l3.05-7.62zm7.22 0l-2.41 11.26h-2.89l2.4-11.26h2.9zm5.86-.21c.87 0 1.96.27 2.58.52l-.5 2.33c-.57-.22-1.5-.53-2.29-.52-1.14.02-1.84.5-1.84.96 0 .74 1.22 1.12 2.48 1.93 1.44.93 1.63 1.77 1.61 2.68-.02 1.88-1.61 3.74-4.96 3.74-1.53-.02-2.09-.15-3.33-.59l.52-2.44c1.28.53 1.81.7 2.9.7.99 0 1.85-.4 1.85-1.1.01-.5-.29-.75-1.41-1.36-1.12-.62-2.68-1.47-2.66-3.19.02-2.19 2.1-3.66 5.05-3.66zm167.66 11.47l-.33-1.69h-3.78l-.6 1.68-3.02.01c1.44-3.46 2.88-6.92 4.33-10.38.24-.59.68-.89 1.32-.88h2.41l2.34 11.26h-2.67zm-3.26-4h2.43l-.9-4.23-1.53 4.23zm-19.48-7.26h3.04l-4.7 11.26h-3.08c-.77-2.97-1.53-5.95-2.29-8.93-.15-.6-.44-1.01-1.02-1.21-.5-.17-1.35-.44-2.54-.81v-.31h4.86c.84 0 1.33.41 1.48 1.24.16.84.56 2.96 1.2 6.38l3.05-7.62zm7.22 0l-2.41 11.26h-2.89l2.4-11.26h2.9zm5.86-.21c.87 0 1.96.27 2.58.52l-.5 2.33c-.57-.22-1.5-.53-2.29-.52-1.14.02-1.84.5-1.84.96 0 .74 1.22 1.12 2.48 1.93 1.44.93 1.63 1.77 1.61 2.68-.02 1.88-1.61 3.74-4.96 3.74-1.53-.02-2.09-.15-3.33-.59l.52-2.44c1.28.53 1.81.7 2.9.7.99 0 1.85-.4 1.85-1.1.01-.5-.29-.75-1.41-1.36-1.12-.62-2.68-1.47-2.66-3.19.02-2.19 2.1-3.66 5.05-3.66zm-116.4 29.95c0-.58.1-1.03.31-1.36.21-.32.55-.49 1.04-.49.48 0 .82.17 1.03.49.21.33.32.78.32 1.36 0 .58-.11 1.03-.32 1.36-.21.33-.55.5-1.03.5-.49 0-.83-.17-1.04-.5-.21-.33-.31-.78-.31-1.36zm2.01 0c0-.25-.02-.45-.05-.62a.905.905 0 00-.19-.42c-.1-.1-.24-.16-.42-.16a.58.58 0 00-.43.16c-.09.11-.16.25-.19.42-.03.17-.04.37-.04.62s.01.47.04.64c.03.17.09.31.19.41.1.11.24.16.43.16.18 0 .32-.05.42-.16.1-.1.16-.24.19-.41.03-.17.05-.39.05-.64zm1.44 1.08c.32-.27.57-.49.76-.67.19-.18.35-.36.48-.56.12-.19.19-.38.19-.57 0-.17-.04-.3-.12-.4-.08-.09-.21-.14-.37-.14-.17 0-.3.06-.39.17-.09.11-.13.26-.14.45h-.68c.02-.4.13-.7.36-.91.22-.2.51-.31.86-.31.38 0 .67.11.87.31.21.2.31.46.31.79 0 .26-.07.51-.21.75-.14.24-.3.44-.48.62-.18.17-.42.38-.71.63h1.48v.58h-2.47v-.52l.26-.22zm2.56-2.21v-.65h1.21V758h-.72v-3h-.49zm2.12 2.21c.32-.27.58-.49.77-.67.19-.18.34-.36.47-.56.13-.19.19-.38.19-.57 0-.17-.04-.3-.12-.4-.08-.09-.2-.14-.37-.14-.17 0-.29.06-.38.17-.09.11-.14.26-.14.45h-.68c.01-.4.13-.7.35-.91.23-.2.51-.31.86-.31.38 0 .67.11.88.31.2.2.3.46.3.79 0 .26-.07.51-.21.75-.14.24-.3.44-.48.62-.18.17-.41.38-.7.63h1.47v.58h-2.47v-.52l.26-.22zm149.87-1.08c0-.58.1-1.03.31-1.36.21-.32.55-.49 1.04-.49.48 0 .82.17 1.03.49.21.33.32.78.32 1.36 0 .58-.11 1.03-.32 1.36-.21.33-.55.5-1.03.5-.49 0-.83-.17-1.04-.5-.21-.33-.31-.78-.31-1.36zm2.01 0c0-.25-.02-.45-.05-.62a.905.905 0 00-.19-.42c-.1-.1-.24-.16-.42-.16a.58.58 0 00-.43.16c-.09.11-.16.25-.19.42-.03.17-.04.37-.04.62s.01.47.04.64c.03.17.09.31.19.41.1.11.24.16.43.16.18 0 .32-.05.42-.16.1-.1.16-.24.19-.41.03-.17.05-.39.05-.64zm1.44 1.08c.32-.27.57-.49.76-.67.19-.18.35-.36.48-.56.12-.19.19-.38.19-.57 0-.17-.04-.3-.12-.4-.08-.09-.21-.14-.37-.14-.17 0-.3.06-.39.17-.09.11-.13.26-.14.45h-.68c.02-.4.13-.7.36-.91.22-.2.51-.31.86-.31.38 0 .67.11.87.31.21.2.31.46.31.79 0 .26-.07.51-.21.75-.14.24-.3.44-.48.62-.18.17-.42.38-.71.63h1.48v.58h-2.47v-.52l.26-.22zm2.56-2.21v-.65h1.21V758h-.72v-3h-.49zm2.12 2.21c.32-.27.58-.49.77-.67.19-.18.34-.36.47-.56.13-.19.19-.38.19-.57 0-.17-.04-.3-.12-.4-.08-.09-.2-.14-.37-.14-.17 0-.29.06-.38.17-.09.11-.14.26-.14.45h-.68c.01-.4.13-.7.35-.91.23-.2.51-.31.86-.31.38 0 .67.11.88.31.2.2.3.46.3.79 0 .26-.07.51-.21.75-.14.24-.3.44-.48.62-.18.17-.41.38-.7.63h1.47v.58h-2.47v-.52l.26-.22zM67 757a1 1 0 100-2 1 1 0 000 2zm158 0a1 1 0 100-2 1 1 0 000 2zm-137 0a1 1 0 100-2 1 1 0 000 2zm158 0a1 1 0 100-2 1 1 0 000 2zm-138 0a1 1 0 100-2 1 1 0 000 2zm158 0a1 1 0 100-2 1 1 0 000 2zm-195 0a1 1 0 100-2 1 1 0 000 2zm158 0a1 1 0 100-2 1 1 0 000 2zm-137 0a1 1 0 100-2 1 1 0 000 2zm158 0a1 1 0 100-2 1 1 0 000 2zm-138 0a1 1 0 100-2 1 1 0 000 2zm158 0a1 1 0 100-2 1 1 0 000 2zm-195 0a1 1 0 100-2 1 1 0 000 2zm158 0a1 1 0 100-2 1 1 0 000 2zm-137 0a1 1 0 100-2 1 1 0 000 2zm158 0a1 1 0 100-2 1 1 0 000 2zm-138 0a1 1 0 100-2 1 1 0 000 2zm158 0a1 1 0 100-2 1 1 0 000 2zm-195 0a1 1 0 100-2 1 1 0 000 2zm158 0a1 1 0 100-2 1 1 0 000 2zm-137 0a1 1 0 100-2 1 1 0 000 2zm158 0a1 1 0 100-2 1 1 0 000 2zm-138 0a1 1 0 100-2 1 1 0 000 2zm158 0a1 1 0 100-2 1 1 0 000 2z" fill="#fff"/><path d="M182.5 722a9.5 9.5 0 009.5-9.5 9.5 9.5 0 00-9.5-9.5 9.5 9.5 0 00-9.5 9.5 9.5 9.5 0 009.5 9.5zm156 0a9.5 9.5 0 009.5-9.5 9.5 9.5 0 00-9.5-9.5 9.5 9.5 0 00-9.5 9.5 9.5 9.5 0 009.5 9.5z" fill="#14D31C"/><path d="M340.02 715.17l-1.61-1.61-1.64 1.65-1.12-1.12 1.64-1.65-1.6-1.6 1.04-1.04 1.6 1.61 1.65-1.65 1.12 1.12-1.65 1.65 1.6 1.6-1.03 1.04zm-156.96-.46l-1.6-1.6-1.65 1.64-1.12-1.12 1.65-1.64-1.61-1.6 1.04-1.04 1.6 1.6 1.65-1.64 1.12 1.12-1.65 1.64 1.61 1.61-1.04 1.03z" fill="#fff"/><path d="M33.9 41.17l3.98-4L35.71 35 28 42.71l7.71 7.71 2.17-2.18-3.98-3.99h24.93v-3.08H33.9z" fill="#1B1B1B"/></svg>