<svg width="305" height="305" fill="none" xmlns="http://www.w3.org/2000/svg"><path d="M152.5 305c84.223 0 152.5-68.277 152.5-152.5S236.723 0 152.5 0 0 68.277 0 152.5 68.277 305 152.5 305z" fill="#fff"/><path d="M195.637 170.753l-.01-.022c-.003-.011-.01-.02-.013-.031l-.031-.081-.022-.047a1.015 1.015 0 00-.033-.066c-.011-.021-.022-.036-.033-.056a1.094 1.094 0 00-.031-.05l-.047-.064-.028-.037a.977.977 0 00-.062-.068l-.018-.021-.014-.015-.004-.004-55.632-55.84a1.332 1.332 0 00-.079-.071c-.023-.027-.046-.054-.072-.08l-9.325-9.36a5.551 5.551 0 00-3.954-1.663 5.335 5.335 0 00-3.808 1.588l-6.166 6.189c-2.161 2.17-2.196 5.8-.076 7.929l9.326 9.36c.025.026.052.049.08.073.022.026.045.053.07.078l55.65 55.858a.48.48 0 00.024.022l.06.055a.878.878 0 01.036.028c.021.016.042.033.064.048l.042.026a.698.698 0 00.116.065l.061.029.063.025.043.016 17.898 5.888a1.287 1.287 0 001.63-1.608l-5.705-18.093zm-77.561-57.985l6.166-6.189a2.773 2.773 0 011.987-.831 2.992 2.992 0 012.133.906l8.572 8.604-10.369 10.408-8.565-8.597c-1.14-1.145-1.107-3.115.076-4.301zm20.672 4.311l53.836 54.039-10.368 10.407-53.836-54.038 10.368-10.408zm45.849 65.697l9.214-9.248 4.322 13.702-13.536-4.454z" fill="#1B1B1B"/></svg>